<?xml version="1.0" encoding="UTF-8" standalone="no"?>
<svg xmlns:rdf="http://www.w3.org/1999/02/22-rdf-syntax-ns#" xmlns="http://www.w3.org/2000/svg" height="32" width="32" version="1.1" xmlns:cc="http://creativecommons.org/ns#" xmlns:dc="http://purl.org/dc/elements/1.1/" viewBox="0 0 100 100">
 <metadata>
  <rdf:RDF>
   <cc:Work rdf:about="">
    <dc:format>image/svg+xml</dc:format>
    <dc:type rdf:resource="http://purl.org/dc/dcmitype/StillImage"/>
    <dc:title/>
   </cc:Work>
  </rdf:RDF>
 </metadata>
 <g fill="#f2f2f2">
  <path d="m22.225 29.34l-15.11-15.11c-0.2172 0.312-0.5158 0.543-0.7048 0.883-0.6016 1.084-1.0738 2.389-1.2735 3.871-0.2057 1.528-0.0404 3.216 0.3692 4.571 0.7846 2.594 2.3108 4.546 4.3652 5.937 1.0009 0.677 2.2029 1.244 3.5839 1.572 1.408 0.335 3.051 0.388 4.623 0.096 1.64-0.305 2.972-0.986 4.147-1.82z" transform="scale(3.125)" stroke-width="0.32"/>
  <path d="m15.096 0.59766c-1.063 0.06848-1.929 0.66374-2.393 1.4375-0.241 0.4022-0.413 0.9169-0.424 1.4628-0.011 0.5706 0.141 1.0784 0.233 1.6563-0.507 0.1005-0.988 0.2259-1.465 0.3555 0.242 1.6182 0.565 3.1546 0.82 4.7602-0.334 0.143-0.57 0.385-0.883 0.55l14.58 14.58c0.879-1.623 1.56-3.506 1.338-5.935-0.278-3.059-1.615-5.31-3.338-6.965-1.767-1.698-4.027-2.8374-7.277-3.0352-0.287-1.5686-0.541-3.1715-0.834-4.7343-0.51 0.024-1.027 0.1136-1.478 0.1504-0.125-0.7117-0.342-1.3988-0.041-1.9844 0.261-0.5088 0.812-0.9144 1.574-0.7793 0.653 0.1158 1.089 0.5543 1.23 1.1758 0.156 0.6892 0.383 1.1686 0.807 1.6015 0.415 0.4231 0.911 0.706 1.574 0.834 0.735 0.1418 1.436-0.016 1.996-0.3008 0.978-0.4969 1.736-1.6899 1.492-3.2285-0.555-0.0233-1.074 0.087-1.478 0.2598v0.0019c0.205 1.0496-0.512 1.7687-1.354 1.8321-0.759 0.0576-1.389-0.4357-1.558-1.1758-0.168-0.7312-0.481-1.3555-1.014-1.8067-0.503-0.42555-1.23-0.76852-2.107-0.71284z" transform="scale(3.125)" stroke-width="0.32"/>
  <rect ry="5.4681" transform="rotate(-45)" height="106.67" width="10.936" y="24.317" x="-12.672"/>
 </g>
</svg>
