<svg xmlns="http://www.w3.org/2000/svg" width="32" height="32" viewBox="0 0 100 100"><path fill="#f2f2f2" d="M66.03 7.683c1.262-.54 2.88-.885 4.617-.812.76 4.808-1.603 8.537-4.66 10.09-1.75.89-3.945 1.383-6.24.94-2.073-.4-3.62-1.285-4.918-2.607-1.326-1.353-2.035-2.848-2.523-5.002-.44-1.942-1.807-3.314-3.847-3.676-2.38-.422-4.1.847-4.917 2.437-.94 1.83-.262 3.976.128 6.2 1.41-.115 3.025-.395 4.618-.47.916 4.884 1.71 9.89 2.607 14.792 10.156.618 17.22 4.184 22.744 9.49 5.383 5.173 9.56 12.2 10.43 21.76.968 10.606-2.937 18.79-7.48 24.453-4.673 5.823-11.247 10.455-20.094 12.1-4.912.913-10.05.747-14.45-.3-4.317-1.027-8.073-2.8-11.2-4.916-6.42-4.348-11.186-10.45-13.638-18.556-1.28-4.234-1.797-9.507-1.154-14.28.624-4.632 2.096-8.71 3.976-12.097 3.837-6.914 9.552-11.927 17.058-15.134-.798-5.016-1.806-9.82-2.564-14.877 1.49-.405 2.992-.798 4.574-1.112-.288-1.806-.763-3.39-.727-5.173.035-1.706.572-3.316 1.326-4.573 1.45-2.418 4.16-4.276 7.48-4.49 2.74-.174 5.013.894 6.584 2.224 1.664 1.41 2.64 3.36 3.165 5.645.53 2.313 2.5 3.856 4.873 3.676 2.63-.198 4.873-2.447 4.232-5.727z"/></svg>