<svg xmlns="http://www.w3.org/2000/svg" width="50" height="50" viewBox="0 0 50 50"><path fill="#1a1a1a" d="M19.194 33.01l-.064-1.76c-.193-3.446.904-6.96 3.806-10.54 2.063-2.637 3.74-4.867 3.74-7.096 0-2.365-1.482-3.987-4.708-4.055-2.128 0-4.708.81-6.386 2.026L13.39 4.22c2.387-1.418 6.19-2.77 10.77-2.77 8.516 0 12.45 4.933 12.45 10.54 0 5.138-3.096 8.517-5.547 11.355-2.322 2.77-3.354 5.406-3.29 8.447v1.217h-8.58zM17.52 42.4c0-3.648 2.385-6.15 5.74-6.15 3.482 0 5.74 2.502 5.804 6.15 0 3.515-2.258 6.15-5.805 6.15-3.42 0-5.74-2.635-5.74-6.15z"/></svg>