<svg xmlns="http://www.w3.org/2000/svg" width="70.428" height="100" viewBox="0 0 70.428 100"><path fill="#f2f2f2" d="M66.75 61.273c-3.4-6.29-8.658-10.746-12.696-13.02-.985.73-2.02 1.39-3.098 1.995 3.894 3.776 6.766 9.015 8.105 15.218 4.474 1.997 8.065 6.592 9.72 12.336.566-.406.99-1.003 1.263-1.78 1.268-3.606-.818-10.172-3.293-14.75zm-55.386 4.19c1.34-6.204 4.212-11.44 8.104-15.215-1.073-.604-2.11-1.265-3.095-1.994-4.04 2.273-9.296 6.73-12.697 13.02C1.2 65.85-.884 72.416.383 76.02c.273.78.697 1.376 1.263 1.782C3.3 72.057 6.893 67.46 11.364 65.464zm25.39 22.93c-.084-.367-.133-.74-.19-1.113-.43-2.662-.24-5.424.638-8.072 1.354-4.118 3.72-7.684 6.59-10.29.28-.255.568-.5.86-.735 2.922-2.377 6.29-3.783 9.637-3.783.506 0 1.015.033 1.508.098.726.104 1.43.294 2.122.527-1.383-5.832-4.164-10.74-7.894-14.264-4.42 2.282-9.492 3.513-14.817 3.513-5.32 0-10.39-1.23-14.81-3.513-3.73 3.522-6.51 8.43-7.894 14.26.69-.23 1.393-.42 2.113-.522 3.817-.497 7.78.945 11.15 3.688.292.235.578.482.858.737 2.872 2.604 5.24 6.17 6.595 10.287.876 2.647 1.064 5.41.64 8.07-.06.374-.108.747-.193 1.114-.216.94-.536 1.854-.912 2.748-.14.332-.278.664-.44.988.255.005.496.027.755.027.708 0 1.43-.018 2.115-.053 1.002.05 1.975.06 2.926.04-.165-.33-.307-.665-.45-1.003-.374-.895-.694-1.81-.91-2.747zM5.596 24.115c.558.425 1.145.773 1.74 1.086-.882 6.675 1.523 13.332 6.232 18.423.31.336.63.665.96.988l.006.006c.995.97 2.077 1.87 3.24 2.695l.02.016c.375.266.76.522 1.152.77.016.01.03.022.047.033.38.24.77.47 1.166.695.03.017.056.035.086.05.384.217.777.423 1.175.623.043.022.085.045.128.066.38.19.77.367 1.16.54l.192.09c.373.16.754.31 1.137.458.088.033.173.07.26.104.37.14.75.266 1.13.39.104.034.206.075.312.107.366.116.74.22 1.115.322.123.034.243.073.367.104.362.095.732.175 1.104.26.14.03.278.066.42.096.36.073.726.135 1.09.196.158.026.313.06.473.084.358.056.726.098 1.09.14.17.02.337.047.508.063.377.038.76.06 1.143.087.166.01.327.03.493.037.55.027 1.105.04 1.667.04h.011c.562 0 1.117-.014 1.668-.04.168-.008.333-.027.5-.04.38-.023.76-.046 1.133-.085.172-.02.338-.044.508-.064.366-.043.732-.085 1.094-.14.155-.024.305-.057.46-.084.37-.062.74-.123 1.103-.198.14-.03.273-.065.413-.097.372-.082.745-.164 1.11-.26.117-.03.23-.066.345-.098.384-.105.767-.212 1.142-.33.092-.03.18-.063.27-.094.397-.13.788-.26 1.172-.405.068-.024.135-.054.202-.08.402-.153.803-.312 1.194-.482.05-.022.1-.047.15-.07.404-.178.807-.363 1.2-.56.032-.015.062-.032.095-.048.41-.206.812-.418 1.208-.64.015-.01.028-.02.044-.026.41-.232.812-.473 1.208-.723l.007-.003c2.035-1.29 3.853-2.81 5.417-4.5 4.706-5.093 7.11-11.748 6.228-18.42.598-.312 1.185-.66 1.742-1.086 5.63-4.285 6.916-12.598 2.875-18.568C63.664-.426 55.824-1.79 50.196 2.495c-.655.5-1.237 1.065-1.772 1.665-4.05-2.202-8.59-3.44-13.21-3.466C30.6.72 26.058 1.96 22.006 4.16c-.534-.6-1.117-1.165-1.77-1.665C14.6-1.788 6.76-.423 2.722 5.545-1.32 11.518-.035 19.83 5.596 24.116zm29.62 2.086c4.41 0 8.476 1.742 10.874 4.66 1.715 2.082 2.403 4.533 1.938 6.9-1.068 5.51-6.578 9.692-12.815 9.727-6.237-.034-11.747-4.216-12.814-9.73-.466-2.364.223-4.814 1.937-6.9 2.398-2.915 6.46-4.656 10.878-4.656zM54.332 6.75c2.895-2.203 6.924-1.502 9.002 1.567 2.078 3.07 1.42 7.345-1.477 9.55-.215.162-.438.304-.664.435-1.753-4.236-4.453-7.86-7.77-10.7.275-.307.574-.597.91-.85zM43.677 16.81c1.22 0 2.207 1.467 2.207 3.276s-.987 3.274-2.207 3.274-2.21-1.465-2.21-3.274.99-3.276 2.21-3.276zm-16.927 0c1.218 0 2.207 1.467 2.207 3.276s-.99 3.274-2.207 3.274c-1.22 0-2.208-1.465-2.208-3.274s.988-3.276 2.208-3.276zM7.09 8.317c2.08-3.07 6.11-3.77 9.002-1.566.336.255.634.545.91.852-3.317 2.84-6.02 6.464-7.77 10.7-.23-.13-.45-.273-.665-.436-2.895-2.204-3.554-6.48-1.476-9.55zM55.62 65.79c-.43-.056-.88-.084-1.332-.084-6.53 0-13.192 5.85-15.845 13.91-1.477 4.46-.914 9.28 1.543 13.22 2.418 3.883 6.312 6.372 10.963 7.01 4.987.682 9.81-.98 13.195-4.53 2.934-3.073 4.5-7.296 4.3-11.583-.42-9.236-5.933-16.95-12.826-17.942zm-4.026 28.853c-3.228-.443-5.93-2.17-7.606-4.863-1.705-2.733-2.095-6.076-1.072-9.172 1.84-5.592 6.462-9.65 10.993-9.65.31 0 .62.02.922.06 4.783.688 8.608 6.04 8.897 12.446.14 2.975-.948 5.903-2.982 8.036-2.35 2.46-5.694 3.61-9.154 3.143zM31.982 79.618c-2.65-8.062-9.314-13.912-15.844-13.912-.45 0-.902.028-1.34.086-6.884.992-12.4 8.705-12.818 17.94-.2 4.287 1.366 8.51 4.3 11.582C9.16 98.336 13.058 100 17.25 100c.734 0 1.483-.053 2.227-.154 4.65-.64 8.544-3.127 10.963-7.01 2.456-3.94 3.018-8.76 1.542-13.218zM17.29 94.748c-2.91 0-5.612-1.154-7.612-3.25-2.034-2.132-3.12-5.06-2.98-8.035.29-6.406 4.113-11.758 8.89-12.445.308-.04.618-.06.93-.06 4.53 0 9.153 4.058 10.993 9.65 1.024 3.096.634 6.438-1.07 9.17-1.68 2.694-4.38 4.42-7.605 4.862-.518.072-1.037.108-1.546.108zM35.212 44.11c3.733 0 6.947-1.78 8.39-4.647.132-.26.026-.577-.233-.708-.26-.13-.577-.026-.708.234-1.188 2.363-3.797 3.865-6.882 4.033v-6.158c1.614-.235 3.536-1.752 4.344-3.578.778-1.943-1.543-3.5-5.075-3.465-3.54.03-5.65 1.653-4.645 3.62.93 1.665 2.713 3.03 4.244 3.377v6.203c-3.085-.168-5.694-1.67-6.883-4.034-.13-.26-.448-.365-.708-.235-.262.13-.366.448-.235.708 1.44 2.867 4.655 4.648 8.388 4.648z"/></svg>