<svg xmlns="http://www.w3.org/2000/svg" width="83.73" height="100" viewBox="8.555 0.274 83.73 100"><path fill="#f2f2f2" d="M87.175 15.303S78.483-.827 49.798.333c0 0-30.616.482-34.576 24.532 0 0-.964 6.277.483 10.43 0 0 2.512 5.505-.385 9.368 0 0-5.312 8.694-5.7 9.176 0 0-3.088 4.154 1.257 5.117 0 0 2.413.676 4.54.676 0 0-.773 3.477-1.158 4.346 0 0-.678 1.833 1.833 2.51 0 0 1.93.968 1.254 1.644 0 0-1.254.387-1.834 1.834 0 0-.095 2.027 2.028 2.8 0 0 2.707 1.158 1.45 5.214 0 0-2.704 6.085 3.38 7.92 0 0 6.28 1.062 11.202-1.738 0 0 2.223-1.445 2.803 1.546 0 0 2.125 12.07 2.22 14.39 0 0 31.68 2.32 38.248-9.85L74.62 72.578s-1.45-6.567 6.373-13.618c0-.004 20.572-19.514 6.182-43.657zm-6.013 31.83s-7.33 8.164-20.043-4.55c0 0-5.287-6.772-20.69-6.307 0 0-14.29 2.32-18.583-8.707 0 0-4.984-14.028 18.397-21.542 0 0 24.31-6.776 41.29 10.112 0 0 14.29 15.682-.372 30.993z"/></svg>