<svg xmlns="http://www.w3.org/2000/svg" width="100" height="100" viewBox="0 0 100 100"><path fill-rule="evenodd" clip-rule="evenodd" fill="#f2f2f2" d="M70.564 57.797c.538-.797.988-1.616 1.34-2.445.373-.885.662-1.81.854-2.76.18-.892.275-1.86.275-2.902 0-1.04-.096-2.01-.275-2.9-.192-.952-.48-1.876-.855-2.76-.35-.83-.8-1.65-1.34-2.446-.516-.77-1.115-1.493-1.784-2.162-1.333-1.332-2.896-2.4-4.61-3.125-1.757-.74-2.58-2.766-1.84-4.523.74-1.758 2.765-2.583 4.523-1.843 2.59 1.097 4.905 2.664 6.83 4.588.965.965 1.846 2.035 2.625 3.19.748 1.11 1.407 2.328 1.96 3.64.55 1.296.976 2.663 1.263 4.087.287 1.42.438 2.846.438 4.256 0 1.412-.15 2.837-.437 4.26-.286 1.422-.712 2.79-1.26 4.085-.555 1.312-1.214 2.53-1.962 3.638-.22.325-.445.644-.68.953-.81 1.07-.966.67-1.884-.25l-2.714-2.713c-.827-.83-1.1-.923-.466-1.866z"/><path fill-rule="evenodd" clip-rule="evenodd" fill="#f2f2f2" d="M80.397 67.533c.736-.845 1.417-1.73 2.04-2.653.99-1.47 1.83-3.006 2.5-4.59.7-1.654 1.24-3.385 1.6-5.174.347-1.71.527-3.522.527-5.427s-.18-3.718-.526-5.426c-.36-1.79-.9-3.52-1.6-5.173-.672-1.584-1.512-3.12-2.5-4.59-.978-1.446-2.1-2.803-3.345-4.05-1.246-1.246-2.603-2.367-4.05-3.342-1.468-.99-3.006-1.83-4.59-2.5-1.76-.74-2.583-2.767-1.843-4.525s2.767-2.583 4.523-1.842c2.067.876 4.003 1.925 5.784 3.126 1.836 1.238 3.536 2.64 5.08 4.182 1.54 1.543 2.943 3.244 4.18 5.08 1.203 1.78 2.25 3.716 3.125 5.783.874 2.066 1.55 4.24 2.008 6.502.453 2.234.69 4.503.69 6.777s-.237 4.544-.688 6.78c-.457 2.26-1.134 4.436-2.008 6.5-.874 2.067-1.923 4.002-3.124 5.783-.875 1.298-1.832 2.527-2.86 3.682-.814.91-.86.65-1.71-.195-1.1-1.102-1.9-1.9-3-3-.87-.87-1.006-.797-.213-1.707zM20.096 32.725h-8.13C8.686 32.725 6 35.41 6 38.69v22.485c0 3.28 2.685 5.966 5.966 5.966h13.44c6.907 5.196 13.81 10.394 20.714 15.592 3.148 2.368 6.793 1.988 6.793-2.12V66.247c0-1.745-.26-2.222-1.506-3.468l-29.18-29.182c-.857-.86-.916-.873-2.13-.873zM12.59 12.588c2.115-2.115 5.576-2.115 7.69 0l67.13 67.13c2.117 2.116 2.117 5.577 0 7.692-2.114 2.116-5.575 2.116-7.69 0L12.59 20.28c-2.116-2.115-2.116-5.576 0-7.692zM46.12 17.134c-2.87 2.163-5.743 4.325-8.616 6.487-1.585 1.194-.805 1.708.6 3.11 4.503 4.507 9.008 9.012 13.513 13.517 1.004 1.016 1.297.896 1.297-.19v-20.8c0-4.11-3.645-4.49-6.793-2.123z"/></svg>