<svg xmlns="http://www.w3.org/2000/svg" width="100" height="100" viewBox="0 0 100 100"><g fill="#fff"><path d="M69.54 25.7L52.867 42.37c-.893-.337-1.858-.522-2.868-.522-4.495 0-8.152 3.657-8.152 8.152s3.657 8.152 8.152 8.152 8.152-3.657 8.152-8.152c0-.81-.12-1.588-.34-2.326l16.852-16.85c1.414-1.416 1.414-3.71 0-5.125-1.414-1.416-3.71-1.416-5.125 0z"/><path d="M50 0C22.386 0 0 22.386 0 50s22.386 50 50 50c27.615 0 50-22.386 50-50S77.615 0 50 0zm30.232 80.23C72.156 88.308 61.42 92.755 50 92.755s-22.156-4.447-30.23-12.522C11.693 72.156 7.246 61.42 7.246 50s4.447-22.156 12.52-30.23C27.845 11.692 38.58 7.245 50 7.245s22.156 4.447 30.232 12.522C88.307 27.844 92.754 38.58 92.754 50s-4.447 22.156-12.522 30.23z"/></g></svg>