<svg xmlns="http://www.w3.org/2000/svg" width="100" height="100" viewBox="0 0 100 100"><path fill="#f2f2f2" d="M66.853 69.518c-1.76.74-3.783-.085-4.524-1.843-.74-1.76.085-3.783 1.843-4.522.828-.353 1.647-.803 2.445-1.34.77-.518 1.49-1.117 2.162-1.785.668-.67 1.27-1.395 1.785-2.162.538-.797.988-1.617 1.34-2.446.373-.886.662-1.808.853-2.76.18-.894.275-1.86.275-2.9s-.096-2.01-.275-2.902c-.19-.952-.48-1.875-.854-2.76-.35-.83-.8-1.65-1.34-2.445-.517-.768-1.116-1.492-1.784-2.162-1.332-1.33-2.895-2.398-4.607-3.124-1.758-.74-2.584-2.766-1.844-4.523.74-1.76 2.766-2.583 4.523-1.843 2.59 1.097 4.905 2.664 6.83 4.588.966.966 1.846 2.034 2.625 3.19.748 1.11 1.407 2.326 1.962 3.638.548 1.297.975 2.664 1.262 4.088.286 1.42.438 2.845.438 4.256s-.15 2.836-.438 4.256c-.287 1.426-.714 2.79-1.262 4.087-.555 1.312-1.214 2.53-1.962 3.64-.78 1.156-1.66 2.226-2.625 3.19-.966.966-2.036 1.847-3.19 2.627-1.11.743-2.33 1.402-3.64 1.958z"/><path fill="#f2f2f2" d="M73.136 81.207c-1.76.74-3.783-.084-4.524-1.842-.74-1.758.085-3.783 1.844-4.524 1.584-.67 3.12-1.51 4.59-2.5 1.447-.975 2.805-2.098 4.05-3.344s2.368-2.603 3.344-4.05c.99-1.468 1.83-3.005 2.5-4.59.7-1.653 1.24-3.385 1.603-5.174.345-1.708.525-3.52.525-5.426s-.182-3.72-.525-5.427c-.36-1.788-.9-3.52-1.602-5.174-.67-1.584-1.51-3.122-2.5-4.59-.976-1.447-2.097-2.804-3.343-4.05s-2.604-2.367-4.05-3.343c-1.47-.99-3.007-1.83-4.59-2.5-1.76-.742-2.585-2.77-1.845-4.525.74-1.758 2.768-2.583 4.524-1.842 2.067.874 4.003 1.923 5.784 3.124 1.836 1.238 3.535 2.64 5.078 4.182s2.944 3.244 4.183 5.08c1.2 1.78 2.25 3.716 3.125 5.783.874 2.063 1.55 4.24 2.007 6.5.452 2.24.688 4.506.688 6.782 0 2.274-.236 4.544-.688 6.78-.457 2.26-1.133 4.437-2.007 6.5-.874 2.066-1.924 4.002-3.124 5.783-1.236 1.836-2.64 3.537-4.182 5.08-1.543 1.54-3.244 2.943-5.08 4.182-1.78 1.2-3.715 2.25-5.782 3.125zM46.12 17.202L25.41 32.794H11.965C8.686 32.794 6 35.48 6 38.76V61.24c0 3.28 2.686 5.965 5.966 5.965h13.442L46.12 82.8c3.147 2.366 6.793 1.987 6.793-2.122V19.324c0-4.11-3.644-4.49-6.792-2.122z"/></svg>