<svg xmlns="http://www.w3.org/2000/svg" width="69.24" height="100" viewBox="3.49 -5.935 69.24 100"><path fill="#f2f2f2" d="M59.532 57.41L72.73 82.545l-14.046 1.13-8.848 10.39-11.655-18.4-11.655 18.4-9.407-10.532-13.628-.988L16.694 57.41l.14-.143c.143.983.56 1.687 1.126 2.528.983 1.404 2.525 2.246 4.35 3.23 1.55.56 2.95.844 4.216.844 1.407 0 2.808-.283 3.65-.846.706.562 1.407 1.266 2.25 1.687 1.406.846 3.23 1.405 5.338 1.405 1.966 0 3.65-.56 5.198-1.404.842-.42 1.4-1.123 1.96-1.686 1.266.562 2.53.845 3.938.845 1.26 0 2.525-.283 4.067-.846 2.107-.983 3.373-1.825 4.356-3.23.564-.84 1.124-1.544 1.406-2.527.14.142.276.142.56.142h.282zM71.33 27.772c0 1.404-.284 2.528-.843 3.37-.706 1.545-8.85 1.125-10.396 1.125h-.275.276c1.408.703 8.99 3.23 9.132 4.777.282 1.122 0 2.246-.565 3.65-1.118 3.09-3.226 3.793-4.49 3.793-.843 0-7.024-3.652-7.307-3.932l-.418-.14.14.14c.844.842 7.3 6.458 6.742 7.865-.283 1.123-.842 2.108-1.825 3.09-1.408 1.405-2.674 2.105-4.216 2.105-.842 0-6.04-6.04-6.882-6.88l-.14-.142v.42c.558 1.125 4.072 8.57 3.23 9.693-.7.842-1.548 1.687-2.95 2.107-.982.42-1.966.7-2.808.7-1.83 0-4.773-7.864-5.62-9.27v-.28.28c0 1.405.423 9.552-.984 10.253-.842.703-2.107.983-3.367.983-1.548 0-2.672-.28-3.514-.984-1.402-.7-.984-8.848-.984-10.252v-.28l-.14.28c-.56 1.404-3.65 9.27-5.617 9.27-.702 0-1.685-.28-2.81-.7-1.265-.422-2.106-1.267-2.807-2.108-.983-1.124 2.526-8.568 3.09-9.692l.278-.42-.56.14c-.84.842-5.897 6.88-6.74 6.88-1.265 0-2.67-.7-4.073-2.103-.983-.982-1.69-1.968-1.83-3.09-.418-1.406 5.62-7.022 6.463-7.864l.423-.14-.565.14c-.282.28-6.458 3.932-7.022 3.932-1.542 0-3.368-.703-4.774-3.793-.56-1.404-.7-2.528-.56-3.65.136-1.545 7.865-4.074 9.266-4.777h.283-.282c-1.4 0-9.548.42-10.39-1.125-.706-.842-.847-1.966-.847-3.37 0-1.404.142-2.667.848-3.51.842-1.264 8.99-.843 10.39-.843h.283l-.282-.14c-1.4-.56-9.13-3.23-9.266-4.917-.14-.983 0-2.246.56-3.51 1.407-3.09 3.232-3.65 4.774-3.65.565 0 6.74 3.65 7.022 3.93l.565.14-.423-.42c-.842-.843-6.882-6.32-6.463-7.866.14-.983.847-1.966 1.83-3.09 1.4-1.263 2.808-1.825 4.074-1.825.843 0 5.9 5.62 6.74 6.602l.56.42-.276-.56C24.42 7.407 20.91.105 21.894-1.3c.7-.842 1.54-1.404 2.807-1.966 1.126-.42 2.108-.562 2.81-.562 1.965 0 5.056 7.724 5.615 9.27l.14.28v-.282c0-1.545-.417-9.69.984-10.532.84-.562 1.965-.845 3.513-.845 1.26 0 2.525.283 3.367.845 1.407.842.983 8.986.983 10.532v.282-.282c.848-1.545 3.79-9.27 5.62-9.27.843 0 1.826.143 2.81.563 1.4.562 2.248 1.124 2.95 1.966.84 1.405-2.674 8.708-3.232 9.832v.562l.142-.42c.842-.984 6.04-6.603 6.882-6.603 1.542 0 2.808.563 4.215 1.826.982 1.125 1.54 2.107 1.824 3.09.56 1.545-5.898 7.023-6.74 7.865l-.142.422.418-.14c.282-.28 6.464-3.93 7.306-3.93 1.266 0 3.373.56 4.49 3.65.566 1.265.85 2.527.566 3.51-.142 1.687-7.724 4.356-9.13 4.916l-.277.14h.276c1.55 0 9.69-.42 10.397.843.56.846.842 2.11.842 3.513zm-11.94 0c0-12.077-9.69-21.908-21.628-21.908-12.08 0-22.05 9.83-22.05 21.908 0 11.938 9.97 21.77 22.05 21.77 11.94 0 21.628-9.832 21.628-21.77zm-5.056 0c0-9.41-7.306-16.854-16.57-16.854-9.414 0-16.996 7.442-16.996 16.853 0 9.27 7.582 16.715 16.995 16.715 9.265 0 16.57-7.444 16.57-16.715z"/></svg>