<svg xmlns="http://www.w3.org/2000/svg" xmlns:xlink="http://www.w3.org/1999/xlink" version="1.1" id="Layer_1" x="0px" y="0px" width="100px" height="100px" viewBox="-346 256 100 100" enable-background="new -346 256 100 100" xml:space="preserve">
<g>
	<circle cx="-292.017" cy="312.488" r="3.383"/>
	<ellipse cx="-301.211" cy="312.488" rx="3.389" ry="3.383"/>
	<polygon points="-294.03,319.62 -296.618,315.138 -299.208,319.62  "/>
	<path d="M-296.625,256.487h-0.096c0,0-32.627,38.269-32.627,63.601c0,25.329,18.047,35.898,32.626,35.898h0.097   c14.578,0,31.521-10.569,31.521-35.898C-265.104,294.756-296.625,256.487-296.625,256.487z M-296.618,297.029   c6.713,0,12.156,5.442,12.156,12.143c0,4.49-2.449,8.405-6.079,10.509v6.63h-1.6v-5.025h-1.979v5.025h-1.508v-5.025h-1.981v5.025   h-1.508v-5.025h-1.981v5.025h-1.599v-6.63c-3.63-2.104-6.078-6.02-6.078-10.509C-308.775,302.471-303.333,297.029-296.618,297.029z    M-283.402,336.06l0.137-0.333c0.514-1.25,2.02-1.892,3.276-1.37c1.282,0.524,1.897,1.996,1.374,3.276   c-0.248,0.602-0.716,1.078-1.319,1.342l-0.319,0.141l0.129,0.324c0.243,0.611,0.242,1.28-0.003,1.881   c-0.515,1.25-2.02,1.886-3.281,1.373c-1.28-0.528-1.895-1.999-1.368-3.28l0.138-0.336l-11.979-4.857l-11.979,4.857l0.138,0.336   c0.526,1.281-0.09,2.753-1.37,3.279c-1.262,0.519-2.766-0.121-3.278-1.372c-0.247-0.601-0.249-1.269-0.005-1.88l0.129-0.325   l-0.32-0.141c-0.603-0.264-1.07-0.74-1.317-1.342c-0.524-1.28,0.091-2.752,1.371-3.276c1.262-0.523,2.764,0.12,3.278,1.37   l0.137,0.333l8.882-3.604l-8.882-3.604l-0.137,0.333c-0.513,1.251-2.014,1.893-3.278,1.371c-1.281-0.524-1.896-1.994-1.371-3.276   c0.247-0.602,0.715-1.079,1.317-1.344l0.319-0.141l-0.129-0.325c-0.244-0.609-0.242-1.277,0.005-1.879   c0.513-1.249,2.016-1.888,3.278-1.37c1.28,0.525,1.896,1.996,1.37,3.277l-0.138,0.336l11.979,4.859l11.979-4.859l-0.138-0.336   c-0.525-1.281,0.088-2.751,1.368-3.277c1.262-0.52,2.767,0.121,3.28,1.37c0.246,0.602,0.247,1.27,0.004,1.879l-0.129,0.325   l0.319,0.141c0.604,0.264,1.07,0.741,1.318,1.344c0.255,0.62,0.252,1.303-0.008,1.923c-0.259,0.619-0.744,1.1-1.365,1.354   c-1.265,0.519-2.763-0.121-3.275-1.372l-0.138-0.333l-8.885,3.604L-283.402,336.06z"/>
</g>
</svg>