<svg xmlns="http://www.w3.org/2000/svg" xmlns:xlink="http://www.w3.org/1999/xlink" version="1.1" id="Layer_1" x="0px" y="0px" width="50px" height="50px" viewBox="0 0 50 50" enable-background="new 0 0 50 50" xml:space="preserve">
<g>
	<path fill="#000000" d="M19.194,33.009l-0.064-1.758c-0.193-3.447,0.904-6.961,3.806-10.542c2.063-2.636,3.741-4.866,3.741-7.095   c0-2.365-1.483-3.987-4.709-4.055c-2.128,0-4.708,0.811-6.386,2.027L13.39,4.22c2.387-1.418,6.191-2.77,10.771-2.77   c8.515,0,12.449,4.933,12.449,10.541c0,5.137-3.096,8.516-5.547,11.354c-2.322,2.771-3.354,5.406-3.29,8.447v1.217H19.194z    M17.519,42.401c0-3.649,2.386-6.15,5.74-6.15c3.483,0,5.74,2.501,5.805,6.15c0,3.514-2.258,6.148-5.805,6.148   C19.84,48.55,17.519,45.915,17.519,42.401z"/>
</g>
</svg>