<svg xmlns="http://www.w3.org/2000/svg" height="32" width="32" viewBox="0 0 100 100"><g fill="#f2f2f2"><path d="M79.206 46.503l-47.72 45.94c3.017 1.957 6.492 3.666 10.56 4.632 4.4 1.047 9.535 1.212 14.448.3C65.34 95.73 71.912 91.1 76.587 85.278c4.544-5.662 8.45-13.844 7.482-24.45-.52-5.71-2.432-10.278-4.864-14.325zM47.175 1.868c-3.322.214-6.028 2.074-7.478 4.492-.753 1.257-1.29 2.865-1.325 4.57-.035 1.784.44 3.37.728 5.177-1.584.314-3.088.706-4.578 1.11.756 5.058 1.765 9.86 2.562 14.877C29.58 35.3 23.87 40.316 20.032 47.228c-1.88 3.388-3.356 7.466-3.98 12.097-.643 4.775-.126 10.05 1.154 14.284.963 3.184 2.555 5.815 4.193 8.396L69.15 36.034c-4.853-3.397-10.462-5.982-18.256-6.457-.897-4.902-1.69-9.91-2.606-14.794-1.594.075-3.21.355-4.62.47-.39-2.224-1.068-4.372-.127-6.202.815-1.59 2.537-2.856 4.92-2.434 2.04.362 3.402 1.732 3.842 3.674.488 2.154 1.197 3.652 2.522 5.005 1.297 1.322 2.847 2.206 4.92 2.606 2.296.445 4.486-.05 6.236-.94 3.057-1.55 5.425-5.28 4.663-10.088-1.734-.072-3.356.272-4.62.812v.006c.642 3.28-1.6 5.527-4.23 5.725-2.372.18-4.34-1.36-4.87-3.674-.524-2.284-1.502-4.235-3.168-5.645-1.57-1.33-3.843-2.4-6.584-2.227zM76.14 31.457l7.308 7.31L24.833 97.38l-7.31-7.31z"/></g></svg>