<svg xmlns:dc="http://purl.org/dc/elements/1.1/" xmlns:cc="http://creativecommons.org/ns#" xmlns:rdf="http://www.w3.org/1999/02/22-rdf-syntax-ns#" xmlns:svg="http://www.w3.org/2000/svg" xmlns="http://www.w3.org/2000/svg" xmlns:sodipodi="http://sodipodi.sourceforge.net/DTD/sodipodi-0.dtd" xmlns:inkscape="http://www.inkscape.org/namespaces/inkscape" width="100" height="100" viewBox="0 0 80 80" version="1.1" id="svg2" inkscape:version="0.48.2 r9819" sodipodi:docname="dozer.svg">
  <metadata id="metadata22">
    <rdf:RDF>
      <cc:Work rdf:about="">
        <dc:format>image/svg+xml</dc:format>
        <dc:type rdf:resource="http://purl.org/dc/dcmitype/StillImage"/>
      </cc:Work>
    </rdf:RDF>
  </metadata>
  <defs id="defs20"/>
  <sodipodi:namedview pagecolor="#ffffff" bordercolor="#666666" borderopacity="1" objecttolerance="10" gridtolerance="10" guidetolerance="10" inkscape:pageopacity="0" inkscape:pageshadow="2" inkscape:window-width="1366" inkscape:window-height="706" id="namedview18" showgrid="true" inkscape:zoom="5.17" inkscape:cx="50" inkscape:cy="50" inkscape:window-x="-8" inkscape:window-y="-8" inkscape:window-maximized="1" inkscape:current-layer="svg2">
    <inkscape:grid type="xygrid" id="grid3001" empspacing="5" visible="true" enabled="true" snapvisiblegridlinesonly="true"/>
  </sodipodi:namedview>
  <path style="fill:#000000;stroke:#000000;stroke-width:0.01877816" d="m 14.977477,19.4251 c -2.015125,0.0832 -4.452209,3.03521 -3.810715,3.69554 1.555889,3.22764 1.648742,5.4624 1.216825,10.21031 -0.860912,-0.0325 -1.738936,-0.24319 -2.583875,0.005 -1.268423,0.44239 -1.612738,1.87776 -2.308462,2.88933 -1.002804,1.46788 -0.626662,3.35782 -0.831246,5.03756 1.018528,0.21505 2.035473,0.41088 3.054581,0.58588 0.19072,0.66381 0.37985,1.32858 0.610916,1.97295 0.998749,-1.18748 1.939735,-2.49706 3.21482,-3.40009 1.293665,-0.80261 2.724904,-1.40354 4.211316,-1.68253 5.146022,0.15456 9.839156,2.50713 14.792182,3.54031 1.939773,-1.15384 4.284995,-1.08262 6.434649,-1.51227 1.186283,-0.30335 2.343636,0.038 3.525286,0.0551 1.704693,-0.13561 3.392952,-0.51538 5.097645,-0.65098 0.283907,1.14594 0.50784,2.33159 0.630946,3.51527 -2.069542,0.43081 -4.218151,0.58072 -6.289432,1.1317 3.817269,1.99832 8.178602,2.62447 12.288428,3.78567 -0.0761,-1.66376 -0.433136,-3.49552 0.290435,-5.04756 0.590369,-0.65253 0.923635,-1.48915 0.716074,-2.37356 0.294296,-0.95729 -0.581137,-1.24853 -1.156734,-1.61743 0.08036,-1.40109 0.220333,-2.83919 -0.120181,-4.22634 -0.03195,-0.56136 -0.22271,-1.26824 -0.821231,-1.43715 -2.271309,-0.85417 -4.751046,-0.98771 -7.085626,-1.62243 -0.233963,-0.44409 -0.327439,-0.92558 -0.38057,-1.40711 -0.06538,-2.4048 0.27069,-4.82634 0.225338,-7.23085 -0.05487,-0.36137 -0.147668,-1.00454 -0.630947,-0.83124 -0.285315,0.33642 -0.434291,0.75618 -0.44066,1.19679 -0.112846,2.262 -0.162288,4.54437 -0.355533,6.82523 -1.818197,-0.32677 -3.660599,-0.63466 -5.478215,-1.0015 -0.548575,0.53294 -1.133013,1.02698 -1.857786,1.27692 -0.740495,-1.433 -0.979341,-3.06187 -1.156735,-4.64697 -0.04502,-1.04232 -0.431426,-2.06748 -1.161742,-2.81923 -1.365997,-1.12152 -3.10417,-1.50771 -4.802201,-1.83275 -2.397851,-0.41529 -4.79302,-0.7311 -7.215821,-0.80621 -0.193037,-0.50359 -0.307142,-1.0623 -0.600901,-1.52729 -0.980789,-0.0542 -1.944542,0.10879 -2.889333,0.33551 -1.685534,0.19597 -1.684114,0.19495 -3.044566,0.0751 -0.377152,-0.34982 -0.821901,-0.47989 -1.286929,-0.46069 z m 0.590886,2.91437 c 0.319867,0.0447 0.656596,0.0905 0.976464,0.1352 -0.07511,2.4228 -0.270721,4.86573 -0.525788,7.2659 0.03865,1.48293 -1.258041,2.44522 -2.408612,3.04957 0.291607,-3.54147 1.386517,-6.95331 1.957936,-10.45067 z m 12.648968,0.28042 c 1.286375,10e-4 3.414371,0.94192 4.176262,1.22684 1.985705,1.21062 0.872475,13.5101 0.665999,16.31446 -1.059453,-0.15554 -2.909446,0.0617 -3.710564,0.0501 -0.766357,-2.41494 -0.907797,-5.77677 -1.111667,-8.03205 -0.342023,-2.01917 -1.037218,-1.03588 -1.422133,-2.12318 -0.189893,-2.10612 0.204952,-4.60415 0.375563,-6.70505 0.03032,-0.53807 0.441823,-0.73157 1.02654,-0.7311 z m -6.244364,0.01 c 1.031681,0.004 2.068963,0.15061 3.079618,0.39059 -0.163038,2.9624 -0.247603,5.9244 -0.650976,8.88332 -0.0235,0.24005 -0.22333,0.41825 -0.405608,0.55584 -1.624002,0.0967 -3.265933,0.0335 -4.887329,-0.0501 -0.03782,-2.92524 0.0632,-5.8696 0.485728,-8.76815 0.08475,-0.31929 0.10963,-0.8173 0.530796,-0.85127 0.610086,-0.11137 1.228763,-0.16239 1.847771,-0.16025 z m -1.201802,1.23185 c -0.295995,2.45967 -0.369992,4.9394 -0.525789,7.4011 0.761063,0.011 2.283503,0.0343 3.024536,0.0451 0.316021,-2.45938 0.390018,-4.94412 0.525788,-7.40611 l -3.024535,-0.0401 z m -2.328492,16.08412 c -0.202726,-0.001 -0.402908,0.003 -0.605909,0.015 -1.246656,0.32252 -2.454248,0.76684 -3.545316,1.41212 -1.701175,1.27749 -2.59463,3.44804 -4.531796,4.42163 -1.811743,1.99705 -3.999593,3.64901 -5.988981,5.46319 -4.397694,4.30418 -2.296536,10.61387 5.30796,9.75463 14.130889,0.5368 43.809403,0.78797 49.288912,-0.63595 4.46636,-2.04982 3.02993,-8.82093 -2.298446,-10.005 -4.04916,-1.2004 -8.186209,-2.04006 -12.193285,-3.38007 -1.854198,-0.60775 -3.564598,-1.6144 -5.503253,-1.92289 -5.353875,-1.01894 -10.513005,-2.87898 -15.718571,-4.45668 -1.379869,-0.33546 -2.792233,-0.65588 -4.211315,-0.666 z m 28.277404,1.49725 c -1.786253,0.23458 -3.573153,0.72768 -5.413117,0.52078 -2.46083,-0.21588 -4.856461,0.49049 -7.265896,0.87631 2.274496,0.63386 4.610251,1.00831 6.905355,1.6024 1.485501,-1.60111 3.945339,-1.32566 5.933898,-1.69754 -0.03368,-0.44119 -0.0865,-0.86018 -0.16024,-1.30195 z M 18.617936,43.5713 c 0.09424,-0.005 0.187582,-0.004 0.28042,0 2.005315,0.0829 3.639527,2.21076 2.849273,4.26139 -0.634441,2.31455 -4.08789,2.82487 -5.503253,0.96144 -1.358754,-1.62222 -0.573452,-4.53694 1.517276,-5.04757 0.287897,-0.10382 0.57357,-0.15957 0.856284,-0.17526 z m 54.216301,1.11167 c -1.64403,0.0964 -3.288076,0.21376 -4.912366,0.33049 0.193038,0.5036 0.407866,1.00838 0.620931,1.51227 -0.898652,-0.19329 -1.783715,-0.0676 -2.648972,0.2003 0.237479,1.58597 -0.641067,2.99832 -1.261893,4.37155 -1.679451,-0.22461 -3.360793,-0.37126 -5.042561,-0.43565 0.810428,0.75291 1.576134,1.60417 2.488732,2.21833 2.184203,-0.0485 4.389704,-0.1968 6.569852,0.0351 -0.0046,0.32045 -0.0054,0.641 -0.01001,0.96144 -2.185364,0.12865 -4.411758,0.13641 -6.569852,-0.23535 0.368695,2.20887 0.414719,4.57298 -0.716074,6.57987 5.010321,0.30489 4.909641,0.16898 8.577863,-0.29545 1.86231,0.047 3.26836,1.39078 4.737104,2.3335 0.44554,-0.3341 0.871433,-0.66711 1.296945,-1.0015 0.375316,0.36601 0.771116,0.69 1.186779,1.03655 0.624051,-0.21132 1.265232,-0.40015 1.927891,-0.51076 -2.38804,-2.47846 -3.981586,-5.84914 -3.930894,-9.35403 0.02404,-1.66232 0.847267,-3.21027 0.891336,-4.8723 -0.283329,-1.186 -1.859135,-0.29098 -2.508762,-1.08163 -0.352681,-0.54597 -0.504454,-1.18895 -0.696044,-1.79268 z m -16.955426,8.65297 c 1.454487,-0.0238 2.913811,1.20114 2.689033,2.71908 0.249976,2.10699 -2.654102,3.48764 -4.196293,2.08312 -1.727368,-1.06665 -1.239465,-4.14432 0.711066,-4.65698 0.258056,-0.0964 0.526845,-0.14081 0.796194,-0.14522 z m -40.300433,2.59389 c 1.073989,0.0155 1.928799,0.92651 1.912868,2.02804 -0.01592,1.10153 -0.898969,1.97848 -1.972958,1.96295 -1.07399,-0.0155 -1.933807,-0.9165 -1.917876,-2.01803 0.01593,-1.10153 0.903976,-1.98849 1.977966,-1.97296 z M 40,55.99993 c 1.073991,0.0155 1.928799,0.91649 1.912868,2.01802 -0.147908,0.75412 -0.720634,2.05545 -1.522282,1.91788 -0.144359,0.0327 -0.296459,0.0523 -0.450676,0.0501 -0.580536,-0.008 -1.096839,-0.28216 -1.44717,-0.70105 -0.0617,-0.032 -0.119657,-0.0612 -0.180271,-0.0951 0.0056,-0.0418 0.01365,-0.0836 0.02003,-0.12519 C 38.134716,58.74701 38.016175,58.36806 38.022034,57.96294 38.037954,56.86141 38.926012,55.98446 40,56 z m 4.807209,0.0701 c 1.073989,0.0155 1.928799,0.9165 1.912868,2.01803 -0.01592,1.10152 -0.898967,1.98348 -1.972958,1.96795 -1.073989,-0.0155 -1.933808,-0.92151 -1.917876,-2.02304 0.01592,-1.10152 0.903978,-1.97847 1.977966,-1.96294 z m -24.501743,0.0501 c 1.073988,0.0155 1.928798,0.9215 1.912869,2.02303 -0.01086,0.75073 -0.424057,1.39591 -1.02654,1.72759 -0.03933,0.0773 -0.07788,0.15473 -0.12018,0.23035 -0.110175,-0.0147 -0.221223,-0.0349 -0.330495,-0.0551 -0.158446,0.0401 -0.319935,0.0676 -0.490736,0.0651 -0.612945,-0.009 -1.157403,-0.31152 -1.50726,-0.77116 -0.02165,-0.0118 -0.04358,-0.023 -0.0651,-0.0351 0.0022,-0.0166 0.0027,-0.0335 0.005,-0.0501 -0.22589,-0.33121 -0.356819,-0.73157 -0.350525,-1.16675 0.01592,-1.10153 0.898969,-1.98349 1.972958,-1.96795 z m 4.807209,0.0701 c 1.073988,0.0155 1.928798,0.92151 1.912869,2.02304 -0.004,0.27538 -0.05839,0.53896 -0.160241,0.77616 -8.01e-4,0.004 -0.0042,0.007 -0.005,0.01 -0.09257,0.39233 -0.327934,0.73302 -0.721081,0.87632 -0.02132,0.008 -0.04299,0.0175 -0.0651,0.025 -0.298776,0.18259 -0.643383,0.28581 -1.016524,0.28042 -1.07399,-0.0156 -1.933806,-0.92151 -1.917876,-2.02304 0.01592,-1.10152 0.898967,-1.98348 1.972958,-1.96795 z" id="path4" inkscape:connector-curvature="0"/>
</svg>