<svg xmlns="http://www.w3.org/2000/svg" width="100" height="100" viewBox="0 0 80 80"><path d="M14.977 19.425c-2.015.083-4.452 3.035-3.81 3.696 1.556 3.228 1.65 5.463 1.217 10.21-.86-.032-1.74-.242-2.584.006-1.27.442-1.613 1.878-2.31 2.89-1.002 1.467-.625 3.357-.83 5.037 1.02.215 2.035.41 3.055.586.19.663.38 1.327.61 1.972 1-1.188 1.94-2.497 3.215-3.4 1.294-.803 2.725-1.404 4.212-1.683 5.146.154 9.84 2.506 14.792 3.54 1.94-1.154 4.285-1.083 6.434-1.513 1.187-.303 2.344.038 3.526.055 1.704-.135 3.393-.515 5.097-.65.285 1.145.51 2.33.632 3.514-2.07.43-4.218.58-6.29 1.132 3.818 2 8.18 2.625 12.29 3.786-.077-1.664-.434-3.496.29-5.048.59-.652.923-1.49.716-2.373.294-.958-.58-1.25-1.157-1.618.08-1.4.22-2.84-.12-4.226-.03-.562-.222-1.27-.82-1.438-2.272-.854-4.75-.988-7.086-1.623-.234-.445-.327-.926-.38-1.408-.066-2.405.27-4.826.225-7.23-.056-.362-.15-1.005-.632-.832-.285.337-.434.756-.44 1.197-.114 2.262-.163 4.544-.356 6.825-1.818-.327-3.66-.634-5.48-1-.547.532-1.132 1.026-1.856 1.276-.74-1.433-.98-3.062-1.157-4.647-.046-1.042-.432-2.067-1.163-2.82-1.366-1.12-3.104-1.506-4.802-1.83-2.398-.417-4.793-.732-7.216-.808-.194-.503-.308-1.062-.602-1.527-.98-.054-1.944.11-2.89.336-1.685.197-1.683.196-3.044.076-.377-.35-.82-.48-1.287-.46zm.59 2.914l.978.135c-.075 2.422-.27 4.865-.526 7.266.038 1.483-1.26 2.446-2.41 3.05.292-3.54 1.387-6.953 1.958-10.45zm12.65.28c1.287 0 3.415.942 4.177 1.227 1.985 1.21.872 13.51.666 16.314-1.06-.154-2.91.063-3.71.05-.767-2.414-.91-5.775-1.113-8.03-.342-2.02-1.037-1.037-1.422-2.124-.19-2.106.205-4.604.376-6.705.03-.537.443-.73 1.027-.73zm-6.244.01c1.032.004 2.07.15 3.08.39-.163 2.963-.248 5.925-.65 8.884-.025.24-.225.418-.407.556-1.624.096-3.266.033-4.887-.05-.04-2.926.062-5.87.484-8.77.085-.318.11-.816.53-.85.61-.11 1.23-.162 1.85-.16zm-1.202 1.232c-.295 2.46-.37 4.94-.525 7.4l3.025.046c.316-2.46.39-4.944.526-7.406l-3.025-.04zm-2.327 16.084c-.203 0-.403.003-.606.015-1.247.323-2.454.768-3.546 1.413-1.7 1.277-2.593 3.448-4.53 4.422-1.812 1.997-4 3.65-5.99 5.463-4.397 4.304-2.296 10.614 5.31 9.754 14.13.537 43.808.788 49.288-.636 4.466-2.05 3.03-8.82-2.3-10.005-4.048-1.2-8.185-2.04-12.192-3.38-1.854-.606-3.565-1.613-5.503-1.92-5.354-1.02-10.513-2.88-15.72-4.458-1.38-.336-2.79-.656-4.21-.666zm28.277 1.497c-1.786.235-3.573.728-5.413.52-2.46-.215-4.857.49-7.266.877 2.276.634 4.61 1.01 6.906 1.603 1.486-1.602 3.946-1.326 5.934-1.698-.033-.44-.086-.86-.16-1.302zM18.618 43.57c.094-.004.188-.003.28 0 2.006.084 3.64 2.212 2.85 4.263-.635 2.314-4.088 2.825-5.504.96-1.358-1.62-.573-4.536 1.518-5.046.288-.104.573-.16.856-.176zm54.216 1.113c-1.644.096-3.288.214-4.912.33.193.504.408 1.01.62 1.513-.898-.194-1.783-.068-2.648.2.237 1.586-.64 2.998-1.262 4.372-1.68-.225-3.36-.372-5.043-.436.81.753 1.576 1.604 2.488 2.218 2.184-.048 4.39-.197 6.57.035-.005.32-.005.64-.01.962-2.185.128-4.412.136-6.57-.236.37 2.21.415 4.574-.716 6.58 5.01.306 4.91.17 8.578-.294 1.862.047 3.268 1.39 4.737 2.333.446-.335.87-.668 1.297-1.002.375.366.77.69 1.187 1.036.625-.21 1.266-.4 1.93-.51-2.39-2.48-3.983-5.85-3.932-9.354.024-1.663.847-3.21.89-4.873-.282-1.186-1.858-.29-2.508-1.08-.352-.547-.504-1.19-.696-1.794zM55.88 53.336c1.453-.024 2.913 1.2 2.688 2.72.25 2.106-2.654 3.487-4.196 2.082-1.728-1.067-1.24-4.144.71-4.657.26-.095.527-.14.797-.144zM15.577 55.93c1.074.015 1.93.926 1.913 2.028-.015 1.1-.898 1.978-1.972 1.963-1.074-.015-1.934-.916-1.918-2.017.016-1.102.904-1.99 1.978-1.973zM40 56c1.074.015 1.93.916 1.913 2.018-.148.754-.72 2.055-1.522 1.918-.144.033-.296.052-.45.05-.58-.008-1.097-.282-1.447-.7-.062-.033-.12-.062-.18-.096.005-.042.013-.084.02-.125-.198-.318-.317-.697-.31-1.102.015-1.102.903-1.98 1.977-1.963zm4.807.07c1.074.016 1.93.917 1.913 2.018-.016 1.102-.9 1.984-1.973 1.968-1.074-.015-1.934-.92-1.918-2.023.015-1.102.903-1.98 1.977-1.963zm-24.502.05c1.074.016 1.93.922 1.913 2.023-.01.75-.424 1.396-1.026 1.728-.04.078-.078.155-.12.23-.11-.014-.222-.034-.33-.054-.16.04-.32.068-.492.065-.613-.008-1.157-.31-1.507-.77l-.065-.035.005-.05c-.226-.33-.357-.732-.35-1.167.015-1.102.898-1.984 1.972-1.968zm4.808.07c1.074.016 1.928.922 1.913 2.023-.004.276-.06.54-.16.776 0 .003-.005.006-.006.01-.092.392-.328.732-.72.876l-.066.025c-.3.183-.643.287-1.016.28-1.074-.014-1.934-.92-1.918-2.022.016-1.1.9-1.983 1.973-1.968z" stroke="#000" stroke-width=".019"/></svg>