<svg xmlns="http://www.w3.org/2000/svg" width="100" height="100" viewBox="0 0 100 100"><path fill="#f2f2f2" d="M45.866 67.892L27.25 47.67c-.262-.282-.657-.38-1.01-.248-.36.126-.604.454-.625.832L24.51 67.36c-.025.448.266.84.68.96.065.02.136.03.206.032l19.723 1.12c.38.022.74-.19.904-.536.164-.35.1-.76-.158-1.044zm-8.27-.49c-.143.5-.665.788-1.165.647-.498-.145-.788-.665-.643-1.166l.546-1.9-4.27-1.222-.547 1.9c-.145.5-.665.79-1.163.647-.5-.143-.79-.664-.645-1.163l.543-1.903-3.043-.87c-.5-.143-.79-.664-.645-1.164.142-.5.663-.79 1.163-.646l3.046.87 1.2-4.18c.143-.5.665-.788 1.163-.646.5.144.79.665.646 1.166l-1.2 4.18 4.27 1.22.2-.69c.143-.5.663-.79 1.164-.647.5.142.788.663.646 1.164l-1.263 4.402zM56.923 39.08l-4.274-1.22-1.265 4.41 4.27 1.222M54.434 31.632l4.273 1.222-1.264 4.416-4.272-1.223zM55.138 45.304l-4.272-1.22-1.267 4.41 4.272 1.22M50.136 23.673l4.272 1.222-1.263 4.412-4.27-1.222zM48.353 29.894l4.267 1.22-1.263 4.416-4.267-1.22zM60.493 26.632l-4.272-1.22-1.266 4.41 4.275 1.223M66.575 28.37l-4.272-1.22-1.267 4.412 4.272 1.222M60.516 33.372l4.272 1.22-1.26 4.416-4.274-1.22zM58.73 39.597l4.274 1.22-1.26 4.412-4.273-1.222zM61.22 47.042l-4.27-1.22-1.268 4.41 4.27 1.222M46.545 29.377l-4.272-1.22-1.267 4.413 4.272 1.222M31.895 18.453l4.27 1.22-1.262 4.414-4.27-1.22zM25.812 16.717l4.274 1.222-1.262 4.413-4.274-1.222z"/><path fill="#f2f2f2" d="M87.384 13.7c-6.757-1.933-10.802-.774-10.974-.724-.307.093-.546.334-.635.645l-3.24 11.292-50.132-14.335c-.5-.143-1.02.147-1.163.647L18.666 20.2l-2.756-2.993c-.258-.28-.657-.38-1.01-.246-.357.126-.6.455-.623.833L12.99 39.98 4.32 70.214c-.143.5.146 1.02.645 1.165l6.108 1.745-.342 5.92c-.025.45.267.842.677.96.067.02.138.03.21.034l29.488 1.672 24.74 7.075C76.6 91.86 78.18 86.347 79.03 83.382l14.75-51.414 2.172-7.577c1.074-3.743-1.838-8.765-8.568-10.69zm-63.12 1.592c.144-.5.665-.79 1.165-.646L68 26.818c.497.145.788.666.644 1.165L59.147 61.1c-.145.5-.666.79-1.167.647-.498-.145-.787-.666-.645-1.165l2.1-7.317-4.272-1.22-1.062 3.7c-.144.5-.663.79-1.162.646-.5-.142-.79-.663-.647-1.163l1.063-3.7-5.177-1.48c-.5-.144-.79-.664-.645-1.165l1.526-5.318-4.272-1.22-.743 2.59c-.143.5-.665.79-1.165.646-.5-.143-.787-.663-.644-1.163l.743-2.592-5.174-1.48c-.5-.143-.79-.665-.647-1.163l1.525-5.318-4.273-1.223-.48 1.676c-.143.5-.664.79-1.164.648-.5-.143-.788-.665-.644-1.165l2.265-7.902-4.268-1.22-1.232 4.293c-.143.5-.664.792-1.165.65-.5-.146-.79-.667-.645-1.166l1.23-4.295-4.993-1.43c-.067-.003-.13.004-.193-.014-.5-.143-.79-.665-.647-1.165l1.798-6.258zM11.062 68.148c-.14.5-.662.788-1.162.646-.5-.144-.79-.665-.646-1.166l1.026-3.574c.143-.498.665-.79 1.163-.646.502.142.79.663.647 1.164l-1.026 3.576zm1.605 10.063l3.364-58.09 7.123 7.74-2.105 1.88c-.39.346-.423.94-.077 1.33.124.14.277.23.443.277.3.086.638.02.887-.202l2.13-1.9 2.41 2.618-2.118 1.89c-.39.347-.423.942-.077 1.33.124.14.277.23.442.278.3.087.64.02.887-.2l2.14-1.912 2.413 2.62-2.13 1.9c-.388.346-.42.942-.076 1.33.126.138.28.23.443.278.3.086.638.02.888-.203l2.15-1.92 2.412 2.62-2.14 1.91c-.39.344-.422.94-.075 1.328.122.14.276.232.44.28.302.086.637.02.888-.203l2.16-1.93 2.413 2.62-2.15 1.918c-.388.345-.423.942-.078 1.33.123.138.278.23.442.276.3.086.638.022.888-.2l2.17-1.94 2.413 2.622-2.16 1.927c-.39.346-.422.94-.077 1.33.124.138.277.23.44.277.302.086.64.02.888-.202l2.182-1.948 2.412 2.618-2.17 1.938c-.388.346-.422.94-.077 1.33.124.14.28.23.443.277.3.085.638.02.887-.202l2.194-1.957 2.41 2.62-2.178 1.945c-.39.347-.422.942-.077 1.33.122.137.277.23.44.278.3.085.638.02.887-.204l2.202-1.964 2.41 2.618-2.192 1.954c-.388.347-.424.942-.077 1.33.124.14.277.232.442.278.3.085.637.02.888-.202l2.214-1.977 2.41 2.62-2.2 1.965c-.39.347-.422.94-.076 1.328.122.14.277.23.44.28.302.086.64.02.888-.205l2.224-1.983 2.558 2.78-1.304 4.55c-.096.33-.004.684.24.924.24.243.596.333.928.237.025-.006 1.93-.51 5.23-.178l7.383 8.018-59.97-3.402zm65.78.395c-1.243-2.46-3.916-4.753-7.98-5.915-4.364-1.247-7.598-1.207-9.386-1.008l16.35-57.005c1.193-.21 4.537-.567 9.435.832 6.168 1.764 7.97 5.953 7.277 8.363L78.445 78.605z"/><path fill="#f2f2f2" d="M36.188 26.417l4.272 1.22-1.263 4.418-4.272-1.222zM42.25 21.416l-4.274-1.222-1.266 4.41 4.275 1.223M48.33 23.154l-4.272-1.22-1.266 4.41 4.272 1.223M50.84 37.34l-4.27-1.22-1.267 4.412 4.27 1.22M40.485 34.383l4.272 1.222-1.262 4.412-4.27-1.22z"/></svg>