<svg xmlns="http://www.w3.org/2000/svg" width="100" height="100" viewBox="-346 256 100 100"><g fill="#f2f2f2"><circle cx="-292.017" cy="312.488" r="3.383"/><ellipse cx="-301.211" cy="312.488" rx="3.389" ry="3.383"/><path d="M-294.03 319.62l-2.588-4.482-2.59 4.482"/><path d="M-296.625 256.487h-.096s-32.628 38.27-32.628 63.6 18.047 35.9 32.626 35.9h.097c14.578 0 31.52-10.57 31.52-35.9s-31.52-63.6-31.52-63.6zm.007 40.542c6.713 0 12.156 5.44 12.156 12.142 0 4.49-2.45 8.405-6.08 10.51v6.63h-1.6v-5.026h-1.978v5.025h-1.508v-5.024h-1.98v5.025h-1.51v-5.024h-1.98v5.025h-1.6v-6.63c-3.63-2.103-6.077-6.02-6.077-10.508 0-6.7 5.442-12.143 12.157-12.143zm13.216 39.03l.137-.333c.514-1.25 2.02-1.892 3.276-1.37 1.283.524 1.898 1.996 1.375 3.276-.248.602-.716 1.078-1.32 1.342l-.318.14.13.325c.242.61.24 1.28-.004 1.88-.515 1.25-2.02 1.887-3.28 1.374-1.28-.528-1.896-2-1.37-3.28l.14-.336-11.98-4.857-11.98 4.858.14.336c.525 1.28-.09 2.753-1.37 3.28-1.263.518-2.767-.122-3.28-1.373-.246-.6-.248-1.268-.004-1.88l.128-.324-.32-.14c-.603-.265-1.07-.74-1.317-1.343-.523-1.28.092-2.752 1.372-3.276 1.262-.523 2.764.12 3.278 1.37l.137.333 8.882-3.604-8.883-3.604-.137.333c-.513 1.25-2.014 1.893-3.278 1.37-1.28-.523-1.896-1.993-1.37-3.275.246-.602.714-1.08 1.316-1.344l.32-.14-.13-.326c-.244-.61-.242-1.277.005-1.88.513-1.248 2.016-1.887 3.278-1.37 1.28.526 1.897 1.997 1.37 3.278l-.137.336 11.98 4.86 11.978-4.86-.137-.336c-.525-1.28.088-2.75 1.368-3.277 1.263-.52 2.768.122 3.28 1.37.247.603.248 1.27.005 1.88l-.13.325.32.14c.604.265 1.07.742 1.318 1.345.255.62.252 1.303-.008 1.923-.26.62-.744 1.1-1.365 1.354-1.265.52-2.763-.12-3.275-1.372l-.138-.333-8.885 3.604 8.886 3.604z"/></g></svg>