<svg xmlns="http://www.w3.org/2000/svg" xmlns:xlink="http://www.w3.org/1999/xlink" version="1.1" id="Calque_1" x="0px" y="0px" width="70.428px" height="100px" viewBox="0 0 70.428 100" enable-background="new 0 0 70.428 100" xml:space="preserve">
<path fill="#f2f2f2" d="M66.75,61.273c-3.4-6.289-8.658-10.746-12.696-13.02c-0.985,0.729-2.021,1.391-3.098,1.995  c3.894,3.776,6.766,9.015,8.105,15.218c4.473,1.997,8.064,6.592,9.72,12.336c0.565-0.406,0.988-1.003,1.262-1.781  C71.311,72.416,69.225,65.85,66.75,61.273z M11.364,65.464c1.341-6.205,4.212-11.44,8.104-15.216  c-1.073-0.604-2.109-1.265-3.095-1.994c-4.039,2.273-9.296,6.73-12.697,13.02C1.201,65.85-0.885,72.416,0.383,76.021  c0.273,0.778,0.697,1.375,1.263,1.781C3.299,72.057,6.893,67.459,11.364,65.464z M36.754,88.393  c-0.084-0.367-0.133-0.74-0.191-1.113c-0.428-2.662-0.238-5.424,0.639-8.072c1.354-4.118,3.719-7.684,6.589-10.289  c0.282-0.256,0.569-0.5,0.86-0.736c2.923-2.377,6.29-3.783,9.638-3.783c0.507,0,1.016,0.033,1.509,0.098  c0.726,0.104,1.43,0.294,2.122,0.527c-1.383-5.832-4.164-10.74-7.894-14.264c-4.421,2.281-9.492,3.512-14.817,3.512  c-5.318,0-10.388-1.23-14.809-3.513c-3.729,3.522-6.51,8.431-7.894,14.261c0.69-0.23,1.393-0.42,2.113-0.523  c3.818-0.497,7.78,0.945,11.152,3.688c0.291,0.235,0.577,0.482,0.857,0.737c2.872,2.604,5.241,6.171,6.595,10.287  c0.876,2.647,1.064,5.41,0.639,8.071c-0.059,0.373-0.107,0.746-0.192,1.113c-0.216,0.939-0.536,1.854-0.912,2.748  c-0.14,0.332-0.278,0.664-0.44,0.988c0.255,0.005,0.496,0.027,0.755,0.027c0.708,0,1.429-0.018,2.115-0.053  c1.002,0.049,1.975,0.059,2.926,0.041c-0.165-0.33-0.307-0.666-0.449-1.004C37.29,90.245,36.97,89.331,36.754,88.393z M5.596,24.115  c0.558,0.425,1.145,0.773,1.741,1.086c-0.883,6.674,1.522,13.331,6.231,18.422c0.311,0.336,0.631,0.665,0.961,0.988  c0.002,0.001,0.004,0.003,0.005,0.005c0.995,0.969,2.077,1.871,3.24,2.695c0.007,0.005,0.013,0.01,0.02,0.015  c0.375,0.266,0.761,0.522,1.152,0.771c0.016,0.01,0.031,0.021,0.047,0.032c0.38,0.241,0.771,0.472,1.166,0.696  c0.03,0.017,0.057,0.035,0.087,0.051c0.384,0.216,0.777,0.422,1.175,0.622c0.042,0.022,0.084,0.045,0.127,0.066  c0.381,0.189,0.77,0.367,1.161,0.541c0.064,0.029,0.126,0.06,0.191,0.088c0.373,0.162,0.754,0.312,1.137,0.459  c0.088,0.033,0.173,0.07,0.261,0.104c0.37,0.139,0.748,0.266,1.129,0.391c0.104,0.033,0.206,0.074,0.312,0.106  c0.367,0.116,0.742,0.22,1.116,0.322c0.123,0.034,0.243,0.073,0.367,0.104c0.362,0.096,0.732,0.176,1.104,0.26  c0.141,0.031,0.278,0.067,0.42,0.097c0.359,0.073,0.726,0.135,1.09,0.196c0.158,0.026,0.313,0.061,0.473,0.084  c0.359,0.056,0.727,0.098,1.092,0.14c0.17,0.021,0.336,0.047,0.507,0.063c0.377,0.039,0.761,0.062,1.143,0.088  c0.165,0.011,0.326,0.029,0.492,0.037c0.55,0.027,1.105,0.041,1.667,0.041h0.005c0.002,0,0.003,0,0.006,0  c0.561,0,1.116-0.015,1.667-0.041c0.168-0.008,0.333-0.027,0.5-0.039c0.379-0.024,0.759-0.047,1.133-0.086  c0.171-0.018,0.337-0.043,0.507-0.063c0.366-0.043,0.732-0.085,1.094-0.14c0.155-0.024,0.305-0.057,0.459-0.084  c0.37-0.062,0.74-0.123,1.104-0.198c0.14-0.029,0.273-0.065,0.413-0.097c0.372-0.082,0.745-0.164,1.111-0.26  c0.116-0.029,0.229-0.066,0.344-0.098c0.384-0.104,0.767-0.211,1.142-0.33c0.092-0.029,0.18-0.062,0.271-0.093  c0.396-0.13,0.787-0.261,1.171-0.405c0.068-0.025,0.135-0.055,0.202-0.08c0.403-0.154,0.804-0.313,1.195-0.483  c0.05-0.022,0.099-0.047,0.149-0.069c0.405-0.179,0.808-0.364,1.201-0.56c0.032-0.016,0.062-0.033,0.095-0.049  c0.41-0.206,0.813-0.418,1.209-0.641c0.015-0.008,0.028-0.018,0.044-0.025c0.411-0.232,0.812-0.473,1.208-0.723  c0.002-0.001,0.005-0.003,0.007-0.004c2.035-1.29,3.853-2.809,5.417-4.501l0,0c4.706-5.092,7.109-11.747,6.228-18.419  c0.598-0.312,1.185-0.661,1.742-1.086c5.63-4.286,6.916-12.599,2.875-18.569C63.665-0.426,55.825-1.79,50.197,2.495  c-0.655,0.5-1.237,1.065-1.772,1.665c-4.051-2.202-8.591-3.439-13.209-3.466c-4.618,0.027-9.159,1.265-13.211,3.466  c-0.534-0.6-1.117-1.165-1.771-1.665C14.602-1.788,6.762-0.423,2.723,5.546C-1.32,11.517-0.035,19.829,5.596,24.115z M35.215,26.201  c4.41,0,8.477,1.741,10.875,4.658c1.715,2.083,2.403,4.534,1.938,6.9c-1.068,5.512-6.578,9.693-12.815,9.728  c-6.237-0.034-11.747-4.216-12.814-9.729c-0.465-2.365,0.224-4.815,1.938-6.9C26.735,27.942,30.798,26.201,35.215,26.201z   M54.333,6.751c2.895-2.204,6.924-1.503,9.002,1.566c2.078,3.07,1.419,7.345-1.477,9.549c-0.215,0.163-0.438,0.305-0.664,0.436  c-1.753-4.236-4.453-7.861-7.771-10.7C53.699,7.295,53.998,7.005,54.333,6.751z M43.677,16.81c1.219,0,2.207,1.467,2.207,3.276  s-0.987,3.274-2.207,3.274s-2.209-1.465-2.209-3.274S42.457,16.81,43.677,16.81z M26.75,16.81c1.218,0,2.207,1.467,2.207,3.276  s-0.989,3.274-2.207,3.274c-1.22,0-2.208-1.465-2.208-3.274S25.53,16.81,26.75,16.81z M7.091,8.317  c2.078-3.069,6.108-3.77,9.001-1.566c0.336,0.254,0.634,0.544,0.909,0.851c-3.316,2.839-6.018,6.464-7.77,10.7  c-0.228-0.131-0.449-0.273-0.664-0.436C5.672,15.662,5.013,11.387,7.091,8.317z M55.619,65.791c-0.429-0.057-0.88-0.085-1.331-0.085  c-6.53,0-13.192,5.851-15.845,13.911c-1.477,4.46-0.914,9.279,1.543,13.22c2.418,3.882,6.312,6.371,10.963,7.009  c4.988,0.682,9.811-0.98,13.196-4.529c2.934-3.074,4.501-7.297,4.299-11.584C68.026,74.497,62.512,66.784,55.619,65.791z   M51.594,94.643c-3.228-0.443-5.929-2.17-7.606-4.863c-1.705-2.733-2.095-6.076-1.072-9.172c1.839-5.592,6.462-9.65,10.993-9.65  c0.312,0,0.622,0.02,0.923,0.059c4.783,0.689,8.608,6.041,8.897,12.447c0.14,2.975-0.947,5.903-2.981,8.036  C58.399,93.961,55.054,95.111,51.594,94.643z M31.982,79.618c-2.651-8.062-9.314-13.912-15.844-13.912  c-0.451,0-0.902,0.028-1.341,0.086C7.914,66.784,2.399,74.497,1.98,83.732c-0.201,4.287,1.366,8.509,4.3,11.582  C9.161,98.336,13.058,100,17.25,100c0,0,0,0,0.001,0c0.733,0,1.482-0.053,2.226-0.154c4.65-0.639,8.544-3.127,10.963-7.009  C32.896,88.896,33.458,84.077,31.982,79.618z M17.289,94.748L17.289,94.748c-2.91,0-5.611-1.154-7.611-3.249  c-2.034-2.133-3.121-5.062-2.981-8.036c0.29-6.406,4.114-11.758,8.891-12.445c0.308-0.041,0.618-0.061,0.931-0.061  c4.529,0,9.152,4.059,10.992,9.652c1.023,3.095,0.633,6.437-1.071,9.17c-1.679,2.693-4.379,4.418-7.605,4.861  C18.317,94.712,17.798,94.748,17.289,94.748z M35.213,44.111c3.733,0,6.947-1.781,8.391-4.648c0.131-0.26,0.025-0.577-0.234-0.708  c-0.259-0.13-0.577-0.026-0.708,0.234c-1.188,2.364-3.797,3.866-6.882,4.034v-6.158c1.614-0.235,3.536-1.752,4.344-3.578  c0.778-1.943-1.543-3.501-5.075-3.465c-3.538,0.03-5.648,1.653-4.644,3.619c0.929,1.666,2.713,3.031,4.244,3.378v6.204  c-3.084-0.168-5.693-1.67-6.882-4.034c-0.13-0.259-0.448-0.364-0.708-0.234c-0.261,0.131-0.365,0.448-0.234,0.708  C28.265,42.33,31.48,44.111,35.213,44.111z"/>
</svg>