<svg xmlns="http://www.w3.org/2000/svg" width="100" height="100" viewBox="0 0 100 100"><path fill="#fff" d="M80.494 78.917l.01-.008-.014-.022v-.015l-1.376-2.52-.018.01-4.484-8.132c-2.45 4.69-14.514 7.2-25.942 7.2s-23.49-2.51-25.942-7.2l-4.48 8.123-.015-.008-1.362 2.475-.02.06v.008l-.015.02.01.01c-.02.15-.03.29-.03.428 0 5.56 14.29 11.486 31.855 11.486 17.563 0 31.854-5.928 31.854-11.486 0-.134-.012-.278-.03-.43z"/><path fill="#fff" d="M57.25 58.003V61.9h-.017c-.287 1.814-3.943 3.202-8.564 3.202-4.62 0-8.277-1.388-8.56-3.202h-.012l-.002-.104c-.004-.04-.006-.084-.006-.126v-3.668c-9.773 1.1-16.763 4.02-16.763 7.453 0 4.374 11.346 7.92 25.342 7.92 13.997 0 25.342-3.546 25.342-7.92 0-3.432-6.988-6.353-16.76-7.452z"/><path fill="#fff" d="M48.67 53.702c-4.65 0-7.893 1.447-7.893 2.746 0 1.298 3.242 2.745 7.892 2.745s7.894-1.447 7.894-2.745c0-1.3-3.243-2.746-7.895-2.746z"/><path fill="#fff" d="M22.2 65.445c.003-1.29.673-2.445 1.85-3.466l-6.147-1.23L32.8 55.786l-4.966-19.86 14.896 9.93 4.965-19.86 4.966 19.86 19.86-14.897-9.93 19.86h19.86l-15.896 7.948c2.098.633 3.91 1.396 5.317 2.28L91 47.98l-21.333-.475 15.174-29.88-30.28 18.73-7.173-28.69-7.17 28.69L18.7 22.01l8.292 30.803L7.957 61.23 22.2 65.445z"/><path fill="#fff" d="M40.562 58.003v3.778s1.375 2.75 8.11 2.75 8.077-2.75 8.077-2.75v-3.777s-.348 2.778-8.08 2.778-8.108-2.777-8.108-2.777z"/></svg>