<svg xmlns="http://www.w3.org/2000/svg" xmlns:xlink="http://www.w3.org/1999/xlink" version="1.1" x="0px" y="0px" width="100px" height="100px" viewBox="0 0 100 100" enable-background="new 0 0 100 100" xml:space="preserve">
<g id="Captions">
</g>
<g id="Your_Icon">
	<path fill="#fff" d="M69.539,25.699L52.868,42.37c-0.893-0.337-1.858-0.522-2.868-0.522c-4.495,0-8.152,3.657-8.152,8.152   s3.657,8.152,8.152,8.152s8.152-3.657,8.152-8.152c0-0.809-0.12-1.588-0.34-2.326l16.852-16.851c1.414-1.415,1.414-3.71,0-5.124   C73.25,24.284,70.955,24.284,69.539,25.699z"/>
	<path fill="#fff" d="M50,0C22.386,0,0,22.386,0,50s22.386,50,50,50c27.615,0,50-22.386,50-50S77.615,0,50,0z M80.232,80.231   C72.156,88.307,61.42,92.754,50,92.754s-22.156-4.447-30.231-12.522C11.694,72.156,7.247,61.42,7.247,50   s4.447-22.156,12.521-30.231C27.844,11.693,38.58,7.246,50,7.246s22.156,4.447,30.232,12.522C88.307,27.844,92.754,38.58,92.754,50   S88.307,72.156,80.232,80.231z"/>
</g>
</svg>