<?xml version="1.0" encoding="utf-8"?>
<!-- Generator: Adobe Illustrator 16.0.0, SVG Export Plug-In . SVG Version: 6.00 Build 0)  -->
<!DOCTYPE svg PUBLIC "-//W3C//DTD SVG 1.1//EN" "http://www.w3.org/Graphics/SVG/1.1/DTD/svg11.dtd">
<svg version="1.1" id="Layer_1" xmlns="http://www.w3.org/2000/svg" xmlns:xlink="http://www.w3.org/1999/xlink" x="0px" y="0px"
	 width="83.73px" height="100px" viewBox="8.555 0.274 83.73 100" enable-background="new 8.555 0.274 83.73 100"
	 xml:space="preserve">
<path d="M87.175,15.303c0,0-8.692-16.13-37.377-14.969c0,0-30.616,0.481-34.576,24.531c0,0-0.964,6.277,0.483,10.431
	c0,0,2.512,5.504-0.385,9.367c0,0-5.312,8.694-5.7,9.176c0,0-3.088,4.155,1.257,5.118c0,0,2.413,0.676,4.539,0.676
	c0,0-0.772,3.477-1.157,4.346c0,0-0.677,1.834,1.834,2.512c0,0,1.931,0.967,1.254,1.643c0,0-1.254,0.387-1.834,1.834
	c0,0-0.095,2.027,2.028,2.8c0,0,2.706,1.158,1.449,5.214c0,0-2.704,6.085,3.38,7.919c0,0,6.279,1.063,11.202-1.737
	c0,0,2.223-1.445,2.803,1.546c0,0,2.125,12.071,2.22,14.391c0,0,31.68,2.318,38.248-9.85l-2.223-17.674
	c0,0-1.449-6.567,6.373-13.618C80.992,58.956,101.565,39.446,87.175,15.303z M81.162,47.133c0,0-7.329,8.164-20.043-4.549
	c0,0-5.286-6.773-20.689-6.308c0,0-14.291,2.32-18.583-8.707c0,0-4.984-14.027,18.397-21.541c0,0,24.311-6.776,41.291,10.112
	C81.535,16.141,95.823,31.822,81.162,47.133z"/>
</svg>
