<svg xmlns="http://www.w3.org/2000/svg" xmlns:xlink="http://www.w3.org/1999/xlink" version="1.1" x="0px" y="0px" width="100px" height="100px" viewBox="0 0 100 100" enable-background="new 0 0 100 100" xml:space="preserve">
<g id="Captions">
	<rect x="-192" y="-276" width="185" height="99"/>
	<rect y="-312" width="100" height="30"/>
	<text transform="matrix(1 0 0 1 66 -295.5)" fill="#000000" font-family="'Helvetica'" font-size="2.4">http://thenounproject.com</text>
	<text transform="matrix(1 0 0 1 7.166 -300.5)"><tspan x="0" y="0" fill="#000000" font-family="'Helvetica-Bold'" font-size="6.1578">The Noun Project</tspan><tspan x="1.12" y="4.8" fill="#000000" font-family="'Helvetica-Bold'" font-size="4">Icon Template</tspan></text>
	<text transform="matrix(1 0 0 1 -178.5 -265.5)" fill="#000000" font-family="'Helvetica-Bold'" font-size="6.1578">Reminders</text>
	<line fill="#000000" stroke="#FFFFFF" stroke-miterlimit="10" x1="8" y1="-290.5" x2="18" y2="-290.5"/>
	<line fill="#000000" stroke="#FFFFFF" stroke-miterlimit="10" x1="-179" y1="-259.5" x2="-162" y2="-259.5"/>
	<g>
		<g>
			<g>
				<rect x="-170.802" y="-244.682" fill="#000000" width="8.721" height="8.642"/>
				<path fill="#000000" d="M-164.455-233.688h4.747v-4.703h-4.747V-233.688z M-159.266-233.251h-5.63v-5.579h5.63V-233.251      L-159.266-233.251z M-166.221-231.938h8.279v-8.203h-8.279V-231.938L-166.221-231.938z M-157.5-231.5h-9.163v-9.079h9.163      V-231.5L-157.5-231.5z"/>
				<polygon fill="#000000" points="-166.149,-231.867 -166.292,-232.009 -158.013,-240.213 -157.871,-240.071     "/>
			</g>
		</g>
	</g>
	<rect x="-179" y="-218" fill="none" width="35" height="32.5"/>
	<text transform="matrix(1 0 0 1 -179 -215.8428)"><tspan x="0" y="0" fill="#000000" font-family="'Helvetica-Bold'" font-size="3">Strokes</tspan><tspan x="0" y="5" fill="#000000" font-family="'Helvetica'" font-size="2.4">Try to keep strokes at 4px</tspan><tspan x="0" y="10" fill="#000000" font-family="'Helvetica'" font-size="2.4">Minimum stroke weight is 2px</tspan><tspan x="0" y="14.5" fill="#000000" font-family="'Helvetica'" font-size="2.4">For thicker strokes use even </tspan><tspan x="0" y="17.5" fill="#000000" font-family="'Helvetica'" font-size="2.4">numbers: 6px, 8px etc.</tspan><tspan x="0" y="22" fill="#000000" font-family="'Helvetica-Bold'" font-size="2.4">Remember to expand strokes </tspan><tspan x="0" y="25" fill="#000000" font-family="'Helvetica-Bold'" font-size="2.4">before saving as an SVG </tspan></text>
	<rect x="-136.5" y="-218" fill="none" width="35" height="32.5"/>
	<text transform="matrix(1 0 0 1 -136.5 -215.8428)"><tspan x="0" y="0" fill="#000000" font-family="'Helvetica-Bold'" font-size="3">Size</tspan><tspan x="0" y="5" fill="#000000" font-family="'Helvetica'" font-size="2.4">Cannot be wider or taller than </tspan><tspan x="0" y="8.5" fill="#000000" font-family="'Helvetica'" font-size="2.4">100px (artboard size)</tspan><tspan x="0" y="13.5" fill="#000000" font-family="'Helvetica'" font-size="2.4">Scale your icon to fill as much of </tspan><tspan x="0" y="16.5" fill="#000000" font-family="'Helvetica'" font-size="2.4">the artboard as possible</tspan></text>
	<rect x="-94" y="-218" fill="none" width="35" height="32.5"/>
	<text transform="matrix(1 0 0 1 -94 -215.8428)"><tspan x="0" y="0" fill="#000000" font-family="'Helvetica-Bold'" font-size="3">Ungroup</tspan><tspan x="0" y="5" fill="#000000" font-family="'Helvetica'" font-size="2.4">If your design has more than one </tspan><tspan x="0" y="8" fill="#000000" font-family="'Helvetica'" font-size="2.4">shape, make sure to ungroup</tspan></text>
	<rect x="-50" y="-218" fill="none" width="35" height="32.5"/>
	<text transform="matrix(1 0 0 1 -50 -215.8428)"><tspan x="0" y="0" fill="#000000" font-family="'Helvetica-Bold'" font-size="3">Save as</tspan><tspan x="0" y="5" fill="#000000" font-family="'Helvetica'" font-size="2.4">Save as .SVG and make sure </tspan><tspan x="0" y="8" fill="#000000" font-family="'Helvetica'" font-size="2.4">&#8220;Use Artboards&#8221; is checked</tspan></text>
	<text transform="matrix(1.0074 0 0 1 -125.542 -245.4067)" fill="#000000" font-family="'Helvetica'" font-size="2.5731">100px</text>
	<text transform="matrix(1.0074 0 0 1 -41 -237)" fill="#000000" font-family="'Helvetica-Bold'" font-size="5.1462">.SVG</text>
	<rect x="-126.514" y="-241.185" fill="#000000" width="10.261" height="10.185"/>
	<rect x="-126.477" y="-244.234" fill="#000000" width="0.522" height="2.337"/>
	<rect x="-116.812" y="-244.234" fill="#000000" width="0.523" height="2.337"/>
	<rect x="-127" y="-243.663" fill="#000000" width="11.233" height="0.572"/>
	<g>
		<rect x="-83.805" y="-242.156" fill="#000000" width="10.305" height="10.156"/>
		<rect x="-76.809" y="-247.293" fill="#000000" width="3.308" height="3.261"/>
	</g>
	<rect x="-178.5" y="-253.5" fill="#000000" stroke="#FFFFFF" stroke-miterlimit="10" width="30" height="30"/>
	<rect x="-136.5" y="-253.5" fill="#000000" stroke="#FFFFFF" stroke-miterlimit="10" width="30" height="30"/>
	<rect x="-93.5" y="-253.5" fill="#000000" stroke="#FFFFFF" stroke-miterlimit="10" width="30" height="30"/>
	<rect x="-49.5" y="-253.5" fill="#000000" stroke="#FFFFFF" stroke-miterlimit="10" width="30" height="30"/>
</g>
<g id="Your_Icon">
	<path d="M84-232v-8c0,0-2,0-7,0v-11c0,0-5.38,0-7.118,0c-4.316,0-5.566,5.308-5.566,5.308L62.613-240c-9.79,0-19.956,0-22.642,0   C34.41-240,33-235.057,33-233.056c0,0.519,0,1.056,0,1.056H0.25c2.722,11,8.689,18.176,16.765,24.356   c0.629-0.103,1.036-0.272,1.896-0.845c1.667-1.109,4.188-2.731,8.644-2.731c4.457,0,6.976,1.697,8.643,2.805   c1.184,0.786,1.502,1.012,2.734,1.012c1.233,0,1.552-0.205,2.736-0.993c1.668-1.107,4.188-2.779,8.644-2.779   s6.976,1.679,8.643,2.784c1.185,0.788,1.504,0.999,2.739,0.999c1.232,0,1.55-0.21,2.735-0.996c1.667-1.109,4.187-2.784,8.644-2.784   s6.978,1.675,8.646,2.782c0.692,0.461,1.091,0.525,1.547,0.666C91.286-213.896,97.211-223,99.92-232H84z M45-227h-6v-6h6V-227z    M56-227h-7v-6h7V-227z M67-227h-6v-6h6V-227z M78-227h-6v-6h6V-227z"/>
	<path d="M84.458-203.39c-2.442,0-3.604-0.771-4.952-1.668c-1.492-0.989-3.184-2.112-6.433-2.112c-3.248,0-4.938,1.123-6.43,2.112   c-1.347,0.897-2.51,1.668-4.949,1.668c-2.444,0-3.607-0.771-4.953-1.668c-1.493-0.989-3.181-2.112-6.429-2.112   c-3.248,0-4.938,1.123-6.429,2.112c-1.346,0.897-2.509,1.668-4.951,1.668c-2.441,0-3.604-0.771-4.949-1.668   c-1.49-0.989-3.18-2.112-6.428-2.112c-3.248,0-4.938,1.123-6.43,2.112c-1.347,0.897-2.509,1.668-4.953,1.668   c-0.738,0-1.334,0.598-1.334,1.334c0,0.737,0.597,1.335,1.334,1.335c3.249,0,4.939-1.123,6.43-2.114   c1.346-0.894,2.509-1.666,4.953-1.666c2.441,0,3.604,0.772,4.95,1.666c1.491,0.991,3.18,2.114,6.427,2.114   c3.248,0,4.937-1.123,6.429-2.114c1.346-0.894,2.509-1.666,4.952-1.666c2.442,0,3.605,0.772,4.95,1.666   c1.492,0.991,3.183,2.114,6.432,2.114c3.246,0,4.935-1.123,6.427-2.114c1.346-0.894,2.508-1.666,4.952-1.666   s3.607,0.772,4.956,1.666c1.49,0.991,3.181,2.114,6.429,2.114c0.738,0,1.334-0.598,1.334-1.335   C85.792-202.792,85.196-203.39,84.458-203.39z"/>
	<path d="M238-253.329l-6.946-8.616l-8.615,6.944l0,0l-7.113,5.735v0.001l-5.613,4.524l0,0l-7.114,5.735l0,0l-7.113,5.736l0,0   l-2.965,2.389c-0.123-0.017-0.244-0.037-0.371-0.037h-10.134l-1.629-9.169l0,0l-0.189-1.067l-0.153-0.861l0,0l-1.521-8.555   l-1.738-9.788l0,0l-0.161-0.909l-0.182-1.02l0,0l-1.802-10.134h-10.133l-1.802,10.134l0,0l-0.117,0.66l-0.226,1.269h0.001   l-1.801,10.137l0,0l-1.588,8.934l-1.844,10.37h-10.132c-1.503,0-2.732,1.229-2.732,2.733v10.442h-3.534   c-1.503,0-2.732,1.229-2.732,2.733v7.066c0,1.504,1.229,2.733,2.732,2.733h8.609c-0.014,0.11-0.034,0.22-0.034,0.333v20.142h7.753   v-20.142c0-0.113-0.02-0.223-0.034-0.333h25.094c-0.013,0.11-0.033,0.22-0.033,0.333v20.142h7.753v-20.142   c0-0.113-0.02-0.223-0.034-0.333h8.609c1.503,0,2.732-1.229,2.732-2.733v-7.066c0-1.504-1.229-2.733-2.732-2.733h-3.533v-0.828   l7.548-6.084l0,0l5.612-4.525l0,0l7.114-5.736l0,0l7.114-5.735l0,0l8.614-6.944l0,0l1.756-1.416v68.467   c0,0.533,0.432,0.964,0.964,0.964c0.533,0,0.965-0.431,0.965-0.964v-70.021L238-253.329z M231.618-258.173l2.814,3.49l-3.152-0.338   L231.618-258.173z M229.363-255.227l-3.151-0.338l3.489-2.813L229.363-255.227z M226.006-253.647l3.151,0.338l-0.338,3.152   l-1.406-1.746L226.006-253.647z M227.317-248.947l-3.151-0.339l0.339-3.151l1.406,1.745L227.317-248.947z M222.251-249.492   l-3.152-0.338l3.489-2.812L222.251-249.492z M218.892-247.913l3.152,0.338l-0.338,3.152L218.892-247.913z M217.391-246.703   l2.813,3.49l-3.152-0.338L217.391-246.703z M215.136-243.756l-3.153-0.339l3.491-2.813L215.136-243.756z M213.185-240.433   l-1.406-1.745l3.151,0.338l-0.338,3.151L213.185-240.433z M211.684-239.222l1.406,1.744l-3.151-0.338l0.338-3.151L211.684-239.222z    M208.021-238.021l-3.152-0.338l3.49-2.814L208.021-238.021z M205.977-231.742l-3.151-0.338l0.338-3.151L205.977-231.742z    M206.071-234.697l-1.407-1.744l3.151,0.338l-0.337,3.15L206.071-234.697z M200.908-232.285l-3.151-0.338l3.489-2.814   L200.908-232.285z M196.049-229.495l2.813,3.488l-3.151-0.339L196.049-229.495z M197.55-230.706l3.151,0.338l-0.338,3.152   l-1.406-1.745L197.55-230.706z M195.505-224.429l3.151,0.339l-3.489,2.812L195.505-224.429z M202.618-230.163l3.152,0.338   l-3.49,2.814L202.618-230.163z M209.732-235.898l3.153,0.338l-3.491,2.814L209.732-235.898z M216.847-241.634l3.152,0.338   l-3.49,2.813L216.847-241.634z M223.96-247.369l3.152,0.338l-3.489,2.813L223.96-247.369z M231.074-253.104l3.152,0.338   l-3.49,2.813L231.074-253.104z M171.812-235.916c2.196-1.097,4.306-2.238,6.715-3.615l1.254,7.054   C176.625-233.783,174.082-234.875,171.812-235.916z M176.211-231.881h-13.272c2.536-1.073,4.671-2.02,6.637-2.949   C171.54-233.9,173.675-232.954,176.211-231.881z M175.581-240.086c-2.057,1.14-3.962,2.134-6.006,3.12   c-2.044-0.986-3.95-1.98-6.008-3.12H175.581z M164.082-242.015c2.098-1.046,3.874-1.979,5.492-2.895   c1.619,0.915,3.395,1.849,5.492,2.895H164.082z M171.503-246.037c1.762-1.066,3.425-2.172,5.25-3.471l1.203,6.769   C175.4-243.983,173.334-245.034,171.503-246.037z M174.412-250.221c-1.635,1.131-3.172,2.117-4.838,3.092   c-1.668-0.975-3.203-1.961-4.84-3.092H174.412z M165.24-252.148c1.666-1.009,3.074-1.912,4.334-2.796   c1.26,0.884,2.669,1.787,4.335,2.796H165.24z M171.218-256.148c1.309-1.002,2.512-2.036,3.783-3.229l1.118,6.308   C174.182-254.218,172.601-255.205,171.218-256.148z M169.574-264.9c0.905,0.824,1.936,1.674,3.158,2.614h-6.317   C167.639-263.227,168.67-264.076,169.574-264.9z M173.226-260.357c-1.211,1.113-2.37,2.084-3.651,3.039   c-1.28-0.955-2.44-1.926-3.65-3.039H173.226z M170.96-266.242c0.842-0.871,1.59-1.765,2.329-2.758l0.97,5.457   C172.956-264.533,171.889-265.403,170.96-266.242z M169.574-267.578c-0.878-0.91-1.646-1.844-2.42-2.914h4.84   C171.22-269.422,170.453-268.488,169.574-267.578z M168.188-266.242c-0.929,0.84-1.996,1.71-3.301,2.7l0.971-5.459   C166.598-268.008,167.347-267.113,168.188-266.242z M167.932-256.148c-1.384,0.944-2.965,1.932-4.904,3.078l1.12-6.308   C165.418-258.185,166.621-257.15,167.932-256.148z M167.646-246.037c-1.832,1.003-3.897,2.054-6.453,3.298l1.202-6.769   C164.22-248.209,165.883-247.104,167.646-246.037z M167.339-235.916c-2.271,1.041-4.814,2.134-7.973,3.439l1.255-7.056   C163.032-238.155,165.142-237.013,167.339-235.916z"/>
	<path d="M372.389-182.908h-8.918c0.008-0.067,0.021-0.135,0.021-0.203v-7.515c0-0.945-0.775-1.72-1.72-1.72h-1.651v-31.741   l5.057,2.432c0.704,0.338,1.449,0.5,2.186,0.5c1.882,0,3.688-1.058,4.559-2.866c1.21-2.516,0.151-5.536-2.365-6.748l-60.411-29.046   c0.341-0.595,0.64-1.194,0.84-1.795c0.261-0.763,0.412-1.52,0.479-2.234c0.065-0.715,0.075-1.369-0.002-1.961   c-0.035-0.568-0.149-1.067-0.222-1.403c-0.085-0.347-0.153-0.546-0.153-0.546c-1.803-5.236-7.018-8.754-12.769-8.185   c0,0-0.209,0.021-0.559,0.087c-0.337,0.074-0.838,0.181-1.368,0.385c-0.571,0.175-1.162,0.458-1.783,0.815   c-0.621,0.36-1.246,0.813-1.831,1.369c-0.592,0.555-1.122,1.22-1.616,1.974c-0.517,0.734-1.021,1.536-1.522,2.378   c-0.996,1.692-1.901,3.595-2.674,5.584c-0.793,1.978-1.512,4.001-2.259,5.85c-0.741,1.854-1.451,3.572-1.979,5.097   c-0.522,1.527-0.915,2.827-1.147,3.764c-0.237,0.936-0.337,1.493-0.337,1.493c-0.305,1.737,0.046,3.609,1.13,5.172   c1.051,1.515,2.599,2.479,4.273,2.835v56.227h-6.032c-0.945,0-1.72,0.773-1.72,1.72v3.468c0,0.947,0.774,1.721,1.72,1.721h92.775   c0.943,0,1.718-0.773,1.718-1.721v-3.468C374.106-182.135,373.332-182.908,372.389-182.908z M350.045-192.346   c-0.944,0-1.72,0.774-1.72,1.72v0.247l-14.752-46.472l17.954,8.632v35.874H350.045z M341.072-199.862l-10.873-5.951l7.654-4.191   L341.072-199.862z M336.519-214.214l-6.638-4.685l4.198-2.997L336.519-214.214z M331.102-231.274l0.891,2.808l-2.198-1.752   L331.102-231.274z M328.174-231.507l-1.626-1.297h3.233L328.174-231.507z M333.048-225.041h-9.675l4.808-3.877L333.048-225.041z    M332.173-223.02l-4.043,2.884l-4.088-2.884H332.173z M328.137-217.656l7.231,5.107h-14.393L328.137-217.656z M334.601-210.528   l-6.505,3.562l-6.506-3.562H334.601z M340.132-198.074h-24.073l12.037-6.588L340.132-198.074z M339.202-196.052l-11.279,4.882   l-11.032-4.882H339.202z M342.526-195.287l3.905,12.305l-15.99-7.074L342.526-195.287z M328.567-239.261l1.405,4.435h-3.565   l1.507-4.747L328.567-239.261z M325.268-231.24l1.293,1.033l-2.179,1.754L325.268-231.24z M322.271-221.796l4.114,2.903   l-6.512,4.644L322.271-221.796z M318.498-209.915l7.491,4.102l-10.642,5.826L318.498-209.915z M313.826-195.196l11.571,5.119   l-15.297,6.621L313.826-195.196z M327.914-188.963l13.684,6.055h-27.672L327.914-188.963z M357.088-192.346h-2.526v-34.415   l2.526,1.215V-192.346z M287.667-239.006c1.176-0.097,2.341-0.49,3.381-1.208c0,0,0.467-0.323,1.215-0.93   c0.756-0.602,1.773-1.503,2.941-2.614c1.167-1.117,2.431-2.481,3.807-3.928c1.204-1.275,2.536-2.592,3.837-3.939l21.383,10.283   l-18.548,58.434h-18.016V-239.006z"/>
	<path d="M502.361-222.312c-0.021,0-0.043,0.004-0.067,0.004c0.014-0.221,0.067-0.432,0.067-0.658   c0-7.117-5.769-12.884-12.885-12.884c-3.419,0-6.508,1.354-8.814,3.528c0.003-0.121,0.019-0.24,0.019-0.361   c0-11.801-9.569-21.372-21.375-21.372c-11.804,0-21.375,9.571-21.375,21.372c0,0.505,0.04,1.001,0.075,1.497   c-2.169-1.017-4.581-1.6-7.133-1.6c-9.319,0-16.873,8.079-16.873,17.397S421.554-198,430.873-198h71.488   c6.427,0,11.639-5.729,11.639-12.155C514-216.583,508.788-222.312,502.361-222.312z"/>
	<path d="M638.625-233.431l9.895-11.989l-15.504-1.404C635.776-242.715,637.67-238.182,638.625-233.431z"/>
	<path d="M630.006-250.724l2.572-15.344l-14.104,6.524C622.828-257.408,626.732-254.432,630.006-250.724z"/>
	<path d="M601.96-263.395c1.597,0,3.218,0.104,4.814,0.305c2.439,0.312,4.815,0.866,7.099,1.621l-5.438-14.533l-8.963,12.72   C600.299-263.339,601.121-263.395,601.96-263.395z"/>
	<path d="M628.345-246.343c-5.433-7.037-13.28-11.531-22.096-12.671c-1.425-0.185-2.869-0.272-4.289-0.272   c-16.667,0-30.839,12.479-32.966,29.033c-2.343,18.208,10.561,34.916,28.761,37.259c1.425,0.185,2.869,0.281,4.293,0.281   c16.659,0,30.831-12.486,32.966-29.042C636.146-230.573,633.778-239.305,628.345-246.343z"/>
	<path d="M652.002-219.556l-12.688-8.939c0.157,2.399,0.089,4.831-0.225,7.263c-0.32,2.463-0.887,4.83-1.652,7.109L652.002-219.556z   "/>
	<path d="M594.562-262.633l-11.989-9.878l-1.4,15.52C585.176-259.695,589.702-261.646,594.562-262.633z"/>
	<path d="M626.74-197.993l15.339,2.576l-6.544-14.14C633.36-205.136,630.375-201.203,626.74-197.993z"/>
	<path d="M602.048-188.604c-1.597,0-3.218-0.104-4.818-0.312c-2.464-0.313-4.835-0.875-7.106-1.638l5.438,14.557l8.967-12.727   C603.705-188.669,602.883-188.604,602.048-188.604z"/>
	<path d="M577.26-254.006l-15.343-2.568l6.544,14.14C570.636-246.856,573.625-250.788,577.26-254.006z"/>
	<path d="M609.438-189.367l11.981,9.895l1.412-15.535C618.824-192.304,614.294-190.354,609.438-189.367z"/>
	<path d="M574.006-201.3l-2.58,15.384l14.132-6.54C581.115-194.639,577.212-197.656,574.006-201.3z"/>
	<path d="M565.388-218.585l-9.907,12.014l15.544,1.412C568.312-209.188,566.374-213.729,565.388-218.585z"/>
	<path d="M564.918-230.774c0.312-2.455,0.883-4.822,1.645-7.102l-14.564,5.44l12.703,8.956   C564.541-225.871,564.597-228.311,564.918-230.774z"/>
	<g>
		<path d="M90.327-72.635c-0.019,0-0.036,0.005-0.055,0.005c0.01-0.187,0.055-0.363,0.055-0.55c0-5.915-4.796-10.708-10.708-10.708    c-2.843,0-5.409,1.127-7.326,2.932c0.003-0.101,0.015-0.196,0.015-0.296c0-9.811-7.951-17.765-17.764-17.765    c-9.812,0-17.765,7.954-17.765,17.765c0,0.42,0.036,0.83,0.064,1.241c-1.805-0.846-3.808-1.327-5.927-1.327    c-7.746,0-14.026,6.277-14.026,14.026c0,7.743,6.28,14.021,14.026,14.021h59.41c5.34,0,9.673-4.33,9.673-9.673    C100-68.305,95.667-72.635,90.327-72.635z"/>
	</g>
	<path d="M50.474-101.041c1.317-0.267,2.676-0.42,4.07-0.42c0.116,0,0.229,0.015,0.346,0.015l2.53-3.07l-9.269-0.84   C49.075-103.981,49.882-102.55,50.474-101.041z"/>
	<path d="M29.721-115.21c0.95,0,1.914,0.062,2.864,0.182c1.451,0.186,2.864,0.516,4.223,0.964l-3.234-8.646l-5.33,7.566   C28.732-115.177,29.222-115.21,29.721-115.21z"/>
	<path d="M46.406-107.672l1.53-9.128l-8.391,3.881C42.136-111.648,44.461-109.878,46.406-107.672z"/>
	<path d="M17.785-77.213c3.008-3.982,7.768-6.569,13.132-6.569c1.195,0,2.375,0.129,3.532,0.387   c0.841-7.944,6.312-14.509,13.646-16.991c-0.673-1.651-1.556-3.228-2.676-4.679c-3.231-4.187-7.9-6.86-13.147-7.538   c-0.845-0.109-1.704-0.162-2.552-0.162c-9.913,0-18.345,7.424-19.612,17.272C9.173-88.223,12.336-81.367,17.785-77.213z"/>
	<path d="M7.986-88.58l-5.917,7.175l9.29,0.846C9.734-82.966,8.576-85.678,7.986-88.58z"/>
	<path d="M16.439-75.16c-1.231-0.927-2.33-2.006-3.342-3.156l-1.542,9.2l3.256-1.509C15.144-72.229,15.678-73.762,16.439-75.16z"/>
	<path d="M25.319-114.757l-7.131-5.877l-0.835,9.233C19.735-113.01,22.429-114.169,25.319-114.757z"/>
	<path d="M7.684-95.804c0.188-1.461,0.525-2.869,0.979-4.225L0-96.792l7.603,5.361C7.502-92.867,7.492-94.323,7.684-95.804z"/>
	<path d="M15.026-109.624L5.9-111.152l3.891,8.412C11.085-105.371,12.863-107.71,15.026-109.624z"/>
	<path d="M203.852-43.851c0.026-0.068,0.048-0.136,0.059-0.209c0.009-0.06,0.008-0.116,0.006-0.177c0-0.042,0.011-0.084,0.004-0.127   l-3.506-23.447c0-0.001,0-0.002,0-0.004l-5.421-36.246c-0.006-0.038-0.027-0.069-0.036-0.107c-0.016-0.058-0.032-0.111-0.057-0.164   c-0.03-0.067-0.068-0.126-0.111-0.184c-0.032-0.043-0.062-0.086-0.102-0.125c-0.059-0.057-0.126-0.102-0.195-0.143   c-0.032-0.02-0.056-0.05-0.091-0.065c-0.011-0.006-0.022-0.004-0.032-0.009c-0.087-0.036-0.182-0.052-0.277-0.063   c-0.034-0.004-0.068-0.019-0.104-0.02c-0.006,0-0.012-0.003-0.019-0.003h-9.156h-9.157c-0.006,0-0.01,0.003-0.016,0.003   c-0.041,0.001-0.079,0.017-0.119,0.021c-0.091,0.014-0.181,0.027-0.263,0.062c-0.011,0.005-0.022,0.003-0.034,0.009   c-0.035,0.016-0.058,0.046-0.09,0.065c-0.07,0.041-0.138,0.086-0.196,0.143c-0.038,0.039-0.068,0.082-0.101,0.125   c-0.044,0.058-0.081,0.116-0.111,0.184c-0.024,0.053-0.041,0.106-0.057,0.164c-0.01,0.038-0.03,0.069-0.036,0.107l-5.421,36.246   c0,0.002,0,0.003,0,0.004l-3.507,23.447c-0.007,0.043,0.005,0.085,0.004,0.127c-0.001,0.061-0.003,0.117,0.006,0.177   c0.012,0.073,0.034,0.141,0.06,0.209c0.019,0.05,0.035,0.1,0.062,0.148c0.042,0.074,0.099,0.138,0.158,0.199   c0.025,0.026,0.038,0.06,0.066,0.084c0.009,0.006,0.017,0.008,0.024,0.014c0.045,0.035,0.098,0.057,0.147,0.085   c0.062,0.033,0.118,0.07,0.183,0.091c0.01,0.003,0.018,0.011,0.028,0.014l18.083,5.176h0.002c0.009,0.003,0.017,0.003,0.023,0.005   c0.086,0.022,0.173,0.035,0.258,0.035h0.001h0.001l0,0l0,0c0.087,0,0.174-0.013,0.259-0.035c0.008-0.002,0.016-0.002,0.022-0.004   c0.001-0.001,0.002-0.001,0.004-0.001l18.083-5.176c0.011-0.003,0.018-0.011,0.027-0.014c0.065-0.021,0.123-0.058,0.184-0.091   c0.05-0.028,0.103-0.05,0.147-0.085c0.007-0.006,0.016-0.008,0.024-0.014c0.028-0.024,0.04-0.058,0.066-0.084   c0.059-0.062,0.115-0.125,0.158-0.199C203.817-43.751,203.832-43.801,203.852-43.851z M176.167-100.319l2.183,4.753l-3.797,6.043   L176.167-100.319z M195.074-89.523l-3.798-6.043l2.184-4.753L195.074-89.523z M188.928-95.413l-3.079,6.704v-11.605L188.928-95.413   z M185.849-68.969v-12.533l4.473,5.083L185.849-68.969z M191.757-74.787l5.602,6.365l-10.369,1.575L191.757-74.787z    M187.027-83.295l7.82-0.665l-3.408,5.679L187.027-83.295z M186.575-85.334l3.669-7.984l4.576,7.282L186.575-85.334z    M183.778-88.71l-3.079-6.703l3.079-4.901V-88.71z M183.051-85.334l-8.245-0.702l4.577-7.283L183.051-85.334z M182.6-83.295   l-4.412,5.014l-3.408-5.679L182.6-83.295z M183.778-81.501v12.531l-4.473-7.449L183.778-81.501z M182.638-66.847l-10.37-1.575   l5.603-6.365L182.638-66.847z M182.677-64.747l-6.101,7.239l-4.501-8.85L182.677-64.747z M183.778-62.842v19.489l-6.183-12.151   L183.778-62.842z M185.849-62.842l6.181,7.338l-6.181,12.151V-62.842z M186.95-64.747l10.601-1.61l-4.501,8.85L186.95-64.747z    M192.875-76.65l3.302-5.5l1.668,11.148L192.875-76.65z M189.961-97.66l-3.275-5.213h5.67L189.961-97.66z M179.666-97.661   l-2.394-5.212h5.668L179.666-97.661z M173.45-82.15l3.303,5.5l-4.97,5.648L173.45-82.15z M175.129-55.789l-6.835,8.113   l2.491-16.652L175.129-55.789z M176.147-53.785l6.665,13.102l-14.262-4.082L176.147-53.785z M193.479-53.785l7.597,9.02   l-14.262,4.082L193.479-53.785z M194.497-55.789l4.345-8.539l2.49,16.652L194.497-55.789z"/>
	<path d="M206.364-122.198c4.349-0.513,7.458-4.453,6.945-8.802c-0.513-4.348-4.452-7.456-8.801-6.944c0,0-0.702,0.083-1.915,0.307   c-0.606,0.11-1.336,0.231-2.172,0.512c-0.833,0.268-1.769,0.521-2.755,0.965c-0.979,0.467-2.047,0.896-3.085,1.577   c-0.514,0.331-1.041,0.672-1.58,1.021c-0.514,0.388-1.021,0.803-1.533,1.218c-0.25,0.213-0.503,0.428-0.756,0.646l-0.705,0.721   c-0.462,0.491-0.947,0.959-1.376,1.482c-0.84,1.069-1.645,2.154-2.296,3.32l-0.506,0.853l-0.427,0.887   c-0.262,0.6-0.562,1.166-0.768,1.769c-0.205,0.594-0.409,1.184-0.61,1.765c-0.187,0.58-0.311,1.173-0.445,1.74   c-0.145,0.565-0.244,1.129-0.312,1.684c-0.074,0.553-0.161,1.082-0.208,1.601c-0.03,1.058-0.122,2.016-0.049,2.916   c0.047,0.892,0.111,1.695,0.24,2.436c0.112,0.724,0.195,1.345,0.336,1.792c0.27,0.932,0.423,1.464,0.423,1.464   c0.062,0.215,0.225,0.4,0.451,0.482c0.378,0.136,0.792-0.061,0.928-0.438c0,0,0.188-0.521,0.516-1.434   c0.134-0.479,0.384-0.967,0.639-1.52c0.23-0.544,0.587-1.16,0.955-1.817c0.319-0.665,0.823-1.325,1.257-2.017   c0.241-0.34,0.509-0.673,0.765-1.013c0.248-0.344,0.523-0.676,0.833-0.991c0.306-0.315,0.573-0.652,0.886-0.958   c0.317-0.294,0.637-0.591,0.96-0.891c0.309-0.3,0.688-0.536,1.02-0.802l0.495-0.394l0.537-0.337   c0.361-0.212,0.677-0.465,1.05-0.635c0.356-0.176,0.712-0.351,1.063-0.523c0.342-0.171,0.714-0.28,1.05-0.421l0.499-0.199   l0.521-0.131c0.327-0.098,0.646-0.192,0.96-0.286c0.322-0.056,0.637-0.11,0.943-0.163c0.568-0.173,1.186-0.139,1.685-0.23   c0.503-0.093,1.021-0.022,1.429-0.079c0.408-0.056,0.802-0.003,1.109-0.009c0.62,0.011,0.966-0.027,0.966-0.027l0.8-0.091   L206.364-122.198z"/>
	<path d="M167.053-124.549c0.216-0.019,0.438-0.036,0.666-0.056c0.228,0.008,0.461,0.017,0.697,0.024   c0.248-0.017,0.498-0.004,0.747,0.033c0.251,0.033,0.521,0.037,0.782,0.089c0.523,0.1,1.09,0.183,1.633,0.372   c0.285,0.072,0.562,0.169,0.829,0.29c0.273,0.113,0.572,0.197,0.837,0.337c0.275,0.137,0.546,0.271,0.815,0.405   c0.269,0.144,0.514,0.315,0.78,0.464c0.542,0.293,0.986,0.679,1.465,1.016c0.43,0.372,0.9,0.71,1.248,1.088   c0.383,0.363,0.748,0.7,1.018,1.016c0.285,0.315,0.554,0.59,0.742,0.881c0.412,0.539,0.648,0.848,0.648,0.848   c0.087,0.111,0.224,0.186,0.376,0.187c0.263,0.001,0.477-0.211,0.478-0.474c0,0,0.002-0.389,0.004-1.067   c0.008-0.329-0.058-0.761-0.123-1.268c-0.059-0.521-0.172-1.074-0.317-1.681c-0.13-0.617-0.383-1.239-0.614-1.941   c-0.299-0.655-0.587-1.394-1.01-2.087c-0.384-0.727-0.885-1.413-1.417-2.12c-0.559-0.679-1.145-1.393-1.852-1.985   c-0.672-0.639-1.43-1.195-2.208-1.73c-0.393-0.256-0.812-0.465-1.22-0.693c-0.406-0.233-0.824-0.436-1.25-0.6   c-0.426-0.165-0.849-0.332-1.267-0.479c-0.43-0.115-0.85-0.229-1.258-0.34c-0.827-0.225-1.621-0.276-2.36-0.372   c-0.741-0.076-1.408-0.04-2.009-0.032c-0.604,0.002-1.107,0.083-1.525,0.148c-0.839,0.125-1.31,0.232-1.31,0.232   c-2.448,0.563-4.18,2.853-3.971,5.431c0.229,2.833,2.711,4.945,5.546,4.716l0.771-0.063c0,0,0.251-0.02,0.68-0.123   c0.216-0.041,0.477-0.139,0.77-0.164c0.293-0.022,0.632-0.158,0.993-0.175C166.225-124.441,166.635-124.571,167.053-124.549z"/>
	<path d="M218.885-110.963c-0.039-0.379-0.056-0.796-0.177-1.262c-0.12-0.462-0.239-0.96-0.476-1.466   c-0.208-0.512-0.516-1.011-0.85-1.51c-0.369-0.467-0.765-0.949-1.234-1.336c-0.457-0.412-0.977-0.729-1.484-1.034   c-0.525-0.266-1.049-0.521-1.587-0.668c-0.525-0.186-1.054-0.277-1.554-0.369c-0.511-0.042-0.986-0.112-1.44-0.095   c-0.454,0-0.875,0.029-1.259,0.082c-0.76,0.106-1.424,0.268-1.802,0.401c-0.401,0.147-0.632,0.232-0.632,0.232   c-0.066,0.025-0.123,0.081-0.146,0.156c-0.036,0.125,0.036,0.257,0.162,0.293c0,0,0.234,0.068,0.645,0.189   c0.433,0.098,0.937,0.288,1.561,0.558c0.312,0.116,0.636,0.266,0.961,0.445c0.336,0.146,0.653,0.37,0.982,0.56   c0.306,0.239,0.639,0.426,0.911,0.694c0.294,0.237,0.531,0.524,0.778,0.772c0.212,0.282,0.419,0.548,0.56,0.834   c0.18,0.258,0.271,0.549,0.375,0.805c0.094,0.263,0.183,0.507,0.217,0.76c0.087,0.229,0.083,0.483,0.127,0.698   c0.063,0.209,0.022,0.441,0.063,0.623c0.036,0.183,0.016,0.363,0.028,0.508c0.006,0.289,0.039,0.459,0.039,0.459l0.102,0.539   c0.201,1.031,1.028,1.875,2.127,2.045c1.399,0.218,2.712-0.741,2.928-2.141c0,0,0.047-0.296,0.076-0.819   C218.904-110.27,218.928-110.583,218.885-110.963z"/>
	<path d="M355.173-56.696c-1.393,0.736-4.841,2.994-5.478,2.159c-1.685-2.206-5.001-6.32-5.902-7.718   c-1.133-1.754-1.363-3.258-0.987-4.19c0.648-1.611,1.184-2.731,1.564-3.459l-7.624-8.484c-22.419,4.193-51.92,2.464-60.461-5.517   c-3.438-3.213,25.163-11.38,41.975-15.048l-5.529-6.15c-1.405-0.088-3.987-0.271-5.446-0.511c-2.068-0.339-3.404-2.328-4.247-3.628   c-1.088-1.678-3.215-5.333-3.902-6.239c-0.69-0.906,2.294-3.205,3.787-3.886c1.488-0.681,5.348-2.871,6.084-2.125   c1.398,1.42,3.978,4.505,6.051,7.63c1.007,1.513,1.302,3.134,0.84,4.278c-0.462,1.149-0.865,2.036-1.196,2.722l32.119,35.737   c1.383,0.14,3.691,0.56,4.596,0.71c2.068,0.339,3.33,2.38,4.249,3.631c0.919,1.245,3.479,5.055,4.166,5.961   C360.521-59.917,356.622-57.466,355.173-56.696z M311.654-91.579c0.354,2.349,7.081,3.294,15.222,2.211l-6.799-7.561   C314.869-95.431,311.387-93.357,311.654-91.579z M341.123-79.302l-9.752-10.853c6.779-1.486,11.618-3.999,11.304-6.089   c-0.368-2.439-7.609-3.373-16.177-2.086c-0.732,0.11-1.442,0.238-2.143,0.374l-1.707-1.901c1.143-0.222,2.188-0.408,3.103-0.556   c13.353-2.122,51.836-4.691,50.197-1.414C373.306-96.536,362.483-84.395,341.123-79.302z"/>
	<path d="M495.376-124.557c1.255-1.423,2.751-2.624,4.116-3.941l8.368-7.747c1.481-1.37,3.8-1.275,5.17,0.2   c1.333,1.444,1.286,3.679-0.095,5.06l-0.232,0.231l-7.746,7.758c-1.26,1.317-2.641,2.508-3.805,3.931l-3.604,4.163   c-2.361,2.814-4.901,5.439-7.104,8.39l-6.776,8.706c-2.214,2.93-4.301,5.966-6.456,8.948c-2.182,2.962-4.174,6.061-6.224,9.117   c-4.09,6.092-7.989,12.426-11.615,18.655l-0.337,0.495c-1.612,2.393-4.858,3.025-7.251,1.412c-0.712-0.474-1.275-1.117-1.666-1.823   l-17.116-31.261c-0.97-1.771-0.321-4.005,1.455-4.975c1.665-0.906,3.741-0.38,4.79,1.148l15.383,22.565   c2.655-4.016,5.354-7.968,8.189-11.856c2.224-3.046,4.379-6.135,6.734-9.085c2.329-2.973,4.585-5.998,6.973-8.917l7.304-8.664   c2.366-2.94,5.122-5.575,7.662-8.379L495.376-124.557z M419.396-38.784c-2.983,0-5.396-2.413-5.396-5.396v-78.637   c0-2.982,2.413-5.396,5.396-5.396h72.018l-3.915,4.163c-0.87,0.959-1.766,1.897-2.661,2.836c-1.196,1.254-2.366,2.519-3.489,3.794   h-56.556v67.845h67.844v-50.971l2.129-2.74c1.328-1.771,2.788-3.426,4.248-5.069c0.896-1.022,1.797-2.034,2.613-3.015l1.803-2.087   v69.277c0,2.983-2.414,5.396-5.396,5.396H419.396z"/>
	<path d="M644.526-72.32c-1.924-3.074-7.117-17.688-7.309-20.188c-0.191-2.498,0.577-6.538-2.884-10.384   c-1.214-1.35-2.217-3.053-3.273-4.803c0.556,0.05,1.029,0.087,1.341,0.116c-0.479-0.468-1.252-0.955-2.137-1.416   c-0.1-0.158-0.203-0.318-0.304-0.478c0.569,0.023,1.086,0.074,1.479,0.211c-0.731-0.797-1.58-1.703-2.552-2.595   c0.648-0.545,1.024-1.322,1.158-1.999c-0.375,0.483-1.389,0.647-2.745,0.669c-0.256-0.189-0.533-0.363-0.807-0.544   c-0.146-0.131-0.297-0.261-0.451-0.389c0.99-0.265,1.803-0.738,2.177-1.488c-1.385,0.495-3.242,0.11-5.037-0.491   c-2.828-5.607-6.45-13.093-8.462-14.674c-2.691-2.115-7.307-4.422-9.229-5.768c-1.923-1.347-3.951-1.54-2.169,1.154   c1.396,2.104,5.454,8.792,7.804,15.103c-1.471-0.235-2.897-0.247-4.289,0.085c-0.436,0.104-0.993,0.329-1.648,0.648   c-1.066-0.905-2.27-1.845-3.543-2.762c-3.723-2.678-13.46-6.152-15.768-7.691c-2.307-1.537-7.112-6.152-6.345-2.885   c0.769,3.27,2.308,7.115,6.345,12.429c0.624,0.822,1.422,1.677,2.319,2.537c1.719,1.482,3.596,2.852,5.542,4.055   c2.076,1.259,4.274,2.376,6.588,2.904l0.015,0.004c0.365,0.083,0.594,0.446,0.511,0.813c-0.08,0.353-0.423,0.576-0.773,0.519   c-2.409-0.395-4.625-1.324-6.735-2.396c-1.228,0.843-2.475,1.703-3.721,2.558c-1.974,0.126-4.759-0.065-6.35-0.758   c0.142,0.854,1.866,2.446,2.75,3.214c-0.108,0.073-0.219,0.148-0.327,0.222c-0.926-0.184-2.497-0.336-4.153,0.217   c1.02,0.055,1.269,0.921,0.974,1.892c-0.037,0.024-0.075,0.048-0.112,0.071c-1.776,0.126-4.023,0.294-4.996-0.087   c1.828,0.912,2.366,1.752,2.366,1.752s-2.366-0.167-3.424-0.455c0.101,0.354,0.096,0.864,0.067,1.271   c-2.225-0.18-4.658-0.562-6.123-0.404c0.981,0.279,1.298,1.456,1.732,2.427c-2.506,0.268-5.448,0.393-7.748-0.312   c0.428,0.385,2.169,2.019,3.888,3.049c-0.971-0.698-6.621-0.164-7.775,0.317c0.743,0.336,0.784,1.019,2.008,1.555   c-0.455,0.067-0.895,0.103-1.324,0.103c-1.619,0-5.73,17.377,0.182,33.527c2.955,8.073,10.501,17.602,15.765,21.053   c3.914,2.57,7.207,3.431,8.46,0.323c1.252-3.107,4.955-12.612,5.396-14.524c1.894-1.894,12.539-12.385,16.14-15.815   c-0.727-0.936-1.386-1.932-1.918-3.017c-0.483-0.955-0.826-2.037-1.071-3.02c-0.259-1.006-0.478-2.015-0.658-3.03   c-0.36-2.036-0.598-4.061-0.689-6.139c-0.016-0.356,0.259-0.656,0.614-0.671c0.346-0.016,0.639,0.245,0.668,0.586l0.003,0.021   c0.168,1.965,0.486,3.962,0.914,5.899c0.464,1.926,0.927,3.912,1.818,5.534c0.479,0.886,1.07,1.717,1.724,2.504h-0.005   c0.88,1.559,2.428,3.747,2.595,4.449c-0.03-0.57,0.016-1.247-0.042-1.906c0.301,0.263,0.607,0.52,0.921,0.77   c0.233,0.768,0.364,1.537,0.447,2.117c0.165-0.248,0.463-0.737,0.677-1.249c0.034,0.023,0.067,0.044,0.101,0.065   c0.284,1.271,0.325,2.581,0.146,3.167c0.462-0.433,0.984-1.269,1.337-2.115c0.529,0.911,1.287,1.977,1.317,2.44   c0.061-0.164,0.411-0.53,0.663-0.953c2.854,1.709,5.779,3.027,7.756,2.863c2.307,2.5,6.728,7.884,10.574,8.172   c1.042,0.079,2.11-0.183,3.148-0.648c-0.592-0.014-1.202-0.065-1.818-0.178c-2.398-0.431-3.717-1.21-4.865-2.875   c-1.087-1.574-1.514-3.024-1.532-3.084c-0.101-0.345,0.097-0.704,0.438-0.805c0.341-0.103,0.701,0.097,0.803,0.441   c0.005,0.011,0.395,1.314,1.354,2.709c0.95,1.376,1.968,1.964,4.029,2.337c1.557,0.278,3.118,0.193,4.222-0.186   c1.681-1.344,3.082-3.027,3.836-4.345C646.063-63.668,646.448-69.242,644.526-72.32z M622.75-91.042   c-0.577-0.361-2.523,0.577-4.326-0.216c-1.802-0.795-3.317-2.813-4.471-2.885c-1.153-0.072,0-0.288,0-0.288   c2.452-0.722,5.192-1.515,6.923-0.722s2.667,2.956,3.316,4.11C624.842-89.889,623.327-90.682,622.75-91.042z M638.901-61.048   c-0.433,0.433-2.452,1.01-3.389,0c-0.5-0.539-0.144-3.966,0.648-4.759c0.794-0.793,1.804,0.146,1.37,0.65   c-0.432,0.504,0.865,1.946,1.37,2.883C638.901-62.273,639.334-61.479,638.901-61.048z"/>
	<g>
		<g>
			<path d="M22.617,5.915c0,16.234,0,32.47,0,48.704c21.902,10.064,40.301-10.089,62.256,0c0-16.234,0-32.47,0-48.704     C62.918-4.175,44.52,15.981,22.617,5.915z"/>
		</g>
	</g>
	<g>
		<path d="M14.882,98.499c-2.209,0-4-1.791-4-4V3.926c0-2.209,1.791-4,4-4s4,1.791,4,4v90.573    C18.882,96.708,17.091,98.499,14.882,98.499z"/>
	</g>
</g>
</svg>