<?xml version="1.0" encoding="utf-8"?>
<!-- Generator: Adobe Illustrator 15.1.0, SVG Export Plug-In . SVG Version: 6.00 Build 0)  -->
<!DOCTYPE svg PUBLIC "-//W3C//DTD SVG 1.1//EN" "http://www.w3.org/Graphics/SVG/1.1/DTD/svg11.dtd">
<svg version="1.1" id="Layer_1" xmlns="http://www.w3.org/2000/svg" xmlns:xlink="http://www.w3.org/1999/xlink" x="0px" y="0px"
	 width="69.24px" height="100px" viewBox="3.49 -5.935 69.24 100" enable-background="new 3.49 -5.935 69.24 100"
	 xml:space="preserve">
<path d="M59.532,57.409L72.73,82.546l-14.046,1.13l-8.848,10.39L38.181,75.667L26.525,94.065l-9.407-10.531L3.49,82.546
	l13.204-25.137c0.141-0.142,0.141-0.142,0.141-0.142c0.142,0.983,0.56,1.687,1.125,2.528c0.983,1.404,2.525,2.246,4.351,3.229
	c1.548,0.562,2.949,0.845,4.215,0.845c1.407,0,2.808-0.282,3.65-0.845c0.706,0.562,1.407,1.266,2.249,1.687
	c1.407,0.845,3.231,1.404,5.339,1.404c1.966,0,3.65-0.56,5.198-1.404c0.842-0.421,1.401-1.124,1.96-1.687
	c1.266,0.562,2.531,0.845,3.938,0.845c1.26,0,2.525-0.282,4.067-0.845c2.107-0.983,3.373-1.825,4.356-3.229
	c0.564-0.842,1.124-1.545,1.406-2.528c0.142,0.142,0.277,0.142,0.56,0.142C59.39,57.409,59.39,57.409,59.532,57.409z M71.329,27.773
	c0,1.404-0.283,2.528-0.842,3.37c-0.706,1.545-8.849,1.125-10.396,1.125h-0.276h0.276c1.407,0.703,8.989,3.231,9.131,4.777
	c0.282,1.122,0,2.246-0.565,3.65c-1.118,3.09-3.226,3.793-4.491,3.793c-0.842,0-7.023-3.652-7.306-3.932l-0.418-0.141l0.141,0.141
	c0.843,0.842,7.3,6.458,6.741,7.865c-0.283,1.122-0.842,2.107-1.825,3.09c-1.407,1.404-2.673,2.104-4.215,2.104
	c-0.842,0-6.04-6.04-6.882-6.881l-0.141-0.141v0.421c0.559,1.124,4.073,8.568,3.231,9.692c-0.701,0.842-1.548,1.687-2.949,2.107
	c-0.983,0.421-1.967,0.7-2.809,0.7c-1.83,0-4.773-7.864-5.621-9.269v-0.28v0.28c0,1.404,0.424,9.551-0.983,10.252
	c-0.842,0.703-2.107,0.983-3.367,0.983c-1.548,0-2.672-0.28-3.514-0.983c-1.401-0.701-0.983-8.848-0.983-10.252v-0.28l-0.141,0.28
	c-0.56,1.404-3.65,9.269-5.616,9.269c-0.701,0-1.684-0.279-2.808-0.7c-1.266-0.421-2.107-1.266-2.808-2.107
	c-0.983-1.124,2.526-8.568,3.091-9.692l0.277-0.421l-0.56,0.141c-0.842,0.842-5.898,6.881-6.74,6.881
	c-1.266,0-2.672-0.7-4.074-2.104c-0.983-0.983-1.689-1.969-1.83-3.09c-0.418-1.407,5.621-7.023,6.463-7.865l0.423-0.141
	l-0.565,0.141c-0.282,0.28-6.458,3.932-7.022,3.932c-1.542,0-3.368-0.703-4.774-3.793c-0.56-1.404-0.701-2.528-0.56-3.65
	c0.136-1.545,7.865-4.074,9.266-4.777h0.283h-0.283c-1.401,0-9.548,0.421-10.39-1.125c-0.706-0.842-0.847-1.966-0.847-3.37
	c0-1.404,0.141-2.667,0.847-3.511c0.842-1.263,8.989-0.842,10.39-0.842h0.283l-0.283-0.141c-1.401-0.56-9.13-3.229-9.266-4.916
	c-0.141-0.983,0-2.246,0.56-3.511c1.407-3.088,3.232-3.65,4.774-3.65c0.565,0,6.74,3.65,7.022,3.932l0.565,0.139l-0.423-0.421
	c-0.842-0.842-6.882-6.319-6.463-7.865c0.141-0.983,0.847-1.966,1.83-3.09c1.401-1.263,2.808-1.825,4.074-1.825
	c0.842,0,5.898,5.619,6.74,6.602l0.56,0.421l-0.277-0.562c-0.565-1.125-4.074-8.427-3.091-9.831
	c0.701-0.842,1.542-1.404,2.808-1.966c1.125-0.421,2.107-0.562,2.808-0.562c1.966,0,5.057,7.724,5.616,9.269l0.141,0.282V5.442
	c0-1.545-0.418-9.69,0.983-10.532c0.842-0.562,1.966-0.845,3.514-0.845c1.26,0,2.525,0.283,3.367,0.845
	c1.407,0.842,0.983,8.986,0.983,10.532v0.282V5.442c0.848-1.545,3.791-9.269,5.621-9.269c0.842,0,1.825,0.142,2.809,0.562
	c1.401,0.562,2.248,1.124,2.949,1.966c0.842,1.404-2.673,8.707-3.231,9.831v0.562l0.141-0.421c0.842-0.983,6.04-6.602,6.882-6.602
	c1.542,0,2.808,0.562,4.215,1.825c0.983,1.125,1.542,2.107,1.825,3.09c0.559,1.545-5.898,7.023-6.741,7.865l-0.141,0.421
	l0.418-0.139c0.282-0.282,6.464-3.932,7.306-3.932c1.266,0,3.373,0.562,4.491,3.65c0.565,1.266,0.848,2.528,0.565,3.511
	c-0.142,1.687-7.724,4.356-9.131,4.916l-0.276,0.141h0.276c1.548,0,9.69-0.421,10.396,0.842
	C71.046,25.106,71.329,26.369,71.329,27.773z M59.39,27.773c0-12.077-9.689-21.908-21.628-21.908
	c-12.08,0-22.051,9.831-22.051,21.908c0,11.938,9.972,21.769,22.051,21.769C49.701,49.542,59.39,39.711,59.39,27.773z
	 M54.334,27.773c0-9.41-7.306-16.854-16.571-16.854c-9.413,0-16.995,7.443-16.995,16.854c0,9.271,7.582,16.715,16.995,16.715
	C47.028,44.488,54.334,37.044,54.334,27.773z"/>
</svg>
